<?xml version="1.0" encoding="UTF-8" standalone="no"?>
<svg
   width="512"
   height="512"
   viewBox="0 0 512 512"
   fill="none"
   version="1.1"
   xmlns="http://www.w3.org/2000/svg">
  <rect
     width="512"
     height="512"
     rx="100"
     fill="#46509E" />
  <g transform="translate(60, 60)">
    <!-- Pencil/Draw icon -->
    <path
       d="M 320,80 L 352,112 L 160,304 L 128,336 L 96,304 L 88,272 L 280,80 L 320,80 Z"
       fill="white"
       opacity="0.9" />
    <path
       d="M 320,80 L 352,112 L 160,304 L 128,336 L 96,304 L 88,272 L 280,80 L 320,80 Z M 312,98 L 106,304 L 128,326 L 334,120 L 312,98 Z"
       fill="white" />
    <!-- Pencil tip -->
    <path
       d="M 88,272 L 96,304 L 128,336 L 96,336 L 64,304 L 64,272 Z"
       fill="#46509E"
       opacity="0.8" />
    <!-- Sketch lines (hand-drawn effect) -->
    <path
       d="M 80,200 Q 120,180 160,190 T 240,180"
       stroke="white"
       stroke-width="8"
       fill="none"
       opacity="0.6"
       stroke-linecap="round" />
    <circle
       cx="300"
       cy="250"
       r="30"
       stroke="white"
       stroke-width="8"
       fill="none"
       opacity="0.6" />
    <rect
       x="60"
       y="280"
       width="60"
       height="60"
       stroke="white"
       stroke-width="8"
       fill="none"
       opacity="0.6"
       rx="5" />
  </g>
</svg>
