<?xml version="1.0" encoding="UTF-8" standalone="no"?>
<svg
   width="480"
   height="230"
   viewBox="0 0 480 230"
   fill="none"
   version="1.1"
   id="svg19"
   sodipodi:docname="feature-05.svg"
   xml:space="preserve"
   inkscape:version="1.4 (e7c3feb100, 2024-10-09)"
   xmlns:inkscape="http://www.inkscape.org/namespaces/inkscape"
   xmlns:sodipodi="http://sodipodi.sourceforge.net/DTD/sodipodi-0.dtd"
   xmlns="http://www.w3.org/2000/svg"
   xmlns:svg="http://www.w3.org/2000/svg"><sodipodi:namedview
     id="namedview19"
     pagecolor="#505050"
     bordercolor="#ffffff"
     borderopacity="1"
     inkscape:showpageshadow="0"
     inkscape:pageopacity="0"
     inkscape:pagecheckerboard="1"
     inkscape:deskcolor="#505050"
     inkscape:zoom="1.6586957"
     inkscape:cx="291.19266"
     inkscape:cy="166.09436"
     inkscape:window-width="1920"
     inkscape:window-height="1014"
     inkscape:window-x="0"
     inkscape:window-y="0"
     inkscape:window-maximized="1"
     inkscape:current-layer="svg19" /><path
     d="M 552,32 H 48 c -8.8366,0 -16,7.1634 -16,16 v 441 c 0,8.837 7.1634,16 16,16 h 504 c 8.837,0 16,-7.163 16,-16 V 48 c 0,-8.8366 -7.163,-16 -16,-16 z"
     fill="#ffffff"
     id="path1"
     clip-path="url(#clipPath20)" /><path
     d="M 141,64 H 71 c -3.866,0 -7,3.134 -7,7 0,3.866 3.134,7 7,7 h 70 c 3.866,0 7,-3.134 7,-7 0,-3.866 -3.134,-7 -7,-7 z"
     fill="#eceff1"
     id="path2" /><path
     d="m 178,64 h -15 c -3.866,0 -7,3.134 -7,7 0,3.866 3.134,7 7,7 h 15 c 3.866,0 7,-3.134 7,-7 0,-3.866 -3.134,-7 -7,-7 z"
     fill="#eceff1"
     id="path3" /><path
     d="m 247,64 h -47 c -3.866,0 -7,3.134 -7,7 0,3.866 3.134,7 7,7 h 47 c 3.866,0 7,-3.134 7,-7 0,-3.866 -3.134,-7 -7,-7 z"
     fill="#eceff1"
     id="path4" /><path
     d="m 281,64 h -12 c -3.866,0 -7,3.134 -7,7 0,3.866 3.134,7 7,7 h 12 c 3.866,0 7,-3.134 7,-7 0,-3.866 -3.134,-7 -7,-7 z"
     fill="#eceff1"
     id="path5" /><path
     d="m 112,134 c 0,-13.255 -10.745,-24 -24,-24 -13.2548,0 -24,10.745 -24,24 0,13.255 10.7452,24 24,24 13.255,0 24,-10.745 24,-24 z"
     fill="#eceff1"
     id="path6" /><path
     d="m 178,121 h -41 c -2.761,0 -5,2.239 -5,5 0,2.761 2.239,5 5,5 h 41 c 2.761,0 5,-2.239 5,-5 0,-2.761 -2.239,-5 -5,-5 z"
     fill="#eceff1"
     id="path8" /><path
     d="m 211,121 h -15 c -2.761,0 -5,2.239 -5,5 0,2.761 2.239,5 5,5 h 15 c 2.761,0 5,-2.239 5,-5 0,-2.761 -2.239,-5 -5,-5 z"
     fill="#eceff1"
     id="path9" /><path
     d="m 146,139 h -10 c -2.209,0 -4,1.791 -4,4 0,2.209 1.791,4 4,4 h 10 c 2.209,0 4,-1.791 4,-4 0,-2.209 -1.791,-4 -4,-4 z"
     fill="#eceff1"
     id="path10" /><path
     d="m 183,139 h -23 c -2.209,0 -4,1.791 -4,4 0,2.209 1.791,4 4,4 h 23 c 2.209,0 4,-1.791 4,-4 0,-2.209 -1.791,-4 -4,-4 z"
     fill="#eceff1"
     id="path11" /><path
     d="m 112,212.75 c 0,-13.255 -10.745,-24 -24,-24 -13.2548,0 -24,10.745 -24,24 0,13.255 10.7452,24 24,24 13.255,0 24,-10.745 24,-24 z"
     fill="#eceff1"
     id="path12"
     clip-path="url(#clipPath19)" /><path
     d="m 87.99,202.75 c -5.52,0 -9.99,4.48 -9.99,10 0,5.52 4.47,10 9.99,10 5.53,0 10.01,-4.48 10.01,-10 0,-5.52 -4.48,-10 -10.01,-10 z m 6.93,6 h -2.95 c -0.32,-1.25 -0.78,-2.45 -1.38,-3.56 1.84,0.63 3.37,1.91 4.33,3.56 z M 88,204.79 c 0.83,1.2 1.48,2.53 1.91,3.96 h -3.82 c 0.43,-1.43 1.08,-2.76 1.91,-3.96 z m -7.74,9.96 c -0.16,-0.64 -0.26,-1.31 -0.26,-2 0,-0.69 0.1,-1.36 0.26,-2 h 3.38 c -0.08,0.66 -0.14,1.32 -0.14,2 0,0.68 0.06,1.34 0.14,2 z m 0.82,2 h 2.95 c 0.32,1.25 0.78,2.45 1.38,3.56 -1.84,-0.63 -3.37,-1.9 -4.33,-3.56 z m 2.95,-8 h -2.95 c 0.96,-1.66 2.49,-2.93 4.33,-3.56 -0.6,1.11 -1.06,2.31 -1.38,3.56 z M 88,220.71 c -0.83,-1.2 -1.48,-2.53 -1.91,-3.96 h 3.82 c -0.43,1.43 -1.08,2.76 -1.91,3.96 z m 2.34,-5.96 h -4.68 c -0.09,-0.66 -0.16,-1.32 -0.16,-2 0,-0.68 0.07,-1.35 0.16,-2 h 4.68 c 0.09,0.65 0.16,1.32 0.16,2 0,0.68 -0.07,1.34 -0.16,2 z m 0.25,5.56 c 0.6,-1.11 1.06,-2.31 1.38,-3.56 h 2.95 c -0.96,1.65 -2.49,2.93 -4.33,3.56 z m 1.77,-5.56 c 0.08,-0.66 0.14,-1.32 0.14,-2 0,-0.68 -0.06,-1.34 -0.14,-2 h 3.38 c 0.16,0.64 0.26,1.31 0.26,2 0,0.69 -0.1,1.36 -0.26,2 z"
     fill="#eceff1"
     id="path13" /><path
     d="m 159,199.75 h -22 c -2.761,0 -5,2.239 -5,5 0,2.761 2.239,5 5,5 h 22 c 2.761,0 5,-2.239 5,-5 0,-2.761 -2.239,-5 -5,-5 z"
     fill="#eceff1"
     id="path14" /><path
     d="m 197,199.75 h -20 c -2.761,0 -5,2.239 -5,5 0,2.761 2.239,5 5,5 h 20 c 2.761,0 5,-2.239 5,-5 0,-2.761 -2.239,-5 -5,-5 z"
     fill="#eceff1"
     id="path15" /><path
     d="m 255,199.75 h -40 c -2.761,0 -5,2.239 -5,5 0,2.761 2.239,5 5,5 h 40 c 2.761,0 5,-2.239 5,-5 0,-2.761 -2.239,-5 -5,-5 z"
     fill="#eceff1"
     id="path16" /><path
     d="m 283,199.75 h -10 c -2.761,0 -5,2.239 -5,5 0,2.761 2.239,5 5,5 h 10 c 2.761,0 5,-2.239 5,-5 0,-2.761 -2.239,-5 -5,-5 z"
     fill="#eceff1"
     id="path17" /><path
     d="m 164,217.75 h -28 c -2.209,0 -4,1.791 -4,4 0,2.209 1.791,4 4,4 h 28 c 2.209,0 4,-1.791 4,-4 0,-2.209 -1.791,-4 -4,-4 z"
     fill="#eceff1"
     id="path18" /><path
     d="m 187,217.75 h -9 c -2.209,0 -4,1.791 -4,4 0,2.209 1.791,4 4,4 h 9 c 2.209,0 4,-1.791 4,-4 0,-2.209 -1.791,-4 -4,-4 z"
     fill="#eceff1"
     id="path19" /><defs
     id="defs19"><clipPath
       clipPathUnits="userSpaceOnUse"
       id="clipPath19"><rect
         width="480"
         height="230"
         fill="#ffffff"
         id="rect20"
         x="0"
         y="0" /></clipPath><clipPath
       clipPathUnits="userSpaceOnUse"
       id="clipPath20"><rect
         width="480"
         height="230"
         fill="#ffffff"
         id="rect21"
         x="0"
         y="0" /></clipPath></defs><g
     style="fill:#8d5fd3;fill-opacity:1;stroke-width:0.298984"
     id="g21"
     transform="matrix(0.08361665,0,0,0.08361665,392.78058,220.06601)"><path
       d="M 440,-80 V -240 H 240 L 120,-360 240,-480 h 200 v -80 H 160 v -240 h 280 v -80 h 80 v 80 h 200 l 120,120 -120,120 H 520 v 80 h 280 v 240 H 520 V -80 Z M 240,-640 h 447 l 40,-40 -40,-40 H 240 Z m 33,320 h 447 v -80 H 273 l -40,40 z m -33,-320 v -80 z m 480,320 v -80 z"
       id="path1-2"
       style="fill:#8d5fd3;fill-opacity:1;stroke-width:0.298984" /></g><g
     style="fill:#8d5fd3;fill-opacity:1;stroke-width:0.711238"
     id="g22"
     transform="matrix(0.03515,0,0,0.03515,71.128,226.247)"><path
       d="m 480,-240 q 26,0 43,-17 17,-17 17,-43 0,-26 -17,-43 -17,-17 -43,-17 -26,0 -43,17 -17,17 -17,43 0,26 17,43 17,17 43,17 z m 0,-180 q 26,0 43,-17 17,-17 17,-43 0,-26 -17,-43 -17,-17 -43,-17 -26,0 -43,17 -17,17 -17,43 0,26 17,43 17,17 43,17 z m 0,-180 q 26,0 43,-17 17,-17 17,-43 0,-26 -17,-43 -17,-17 -43,-17 -26,0 -43,17 -17,17 -17,43 0,26 17,43 17,17 43,17 z m -200,240 v -46 q -51,-14 -85.5,-56 -34.5,-42 -34.5,-98 h 120 v -46 q -51,-14 -85.5,-56 -34.5,-42 -34.5,-98 h 120 q 0,-33 23.5,-56.5 Q 327,-840 360,-840 h 240 q 33,0 56.5,23.5 23.5,23.5 23.5,56.5 h 120 q 0,56 -34.5,98 -34.5,42 -85.5,56 v 46 h 120 q 0,56 -34.5,98 -34.5,42 -85.5,56 v 46 h 120 q 0,56 -34.5,98 -34.5,42 -85.5,56 v 6 q 0,33 -23.5,56.5 Q 633,-120 600,-120 H 360 q -33,0 -56.5,-23.5 Q 280,-167 280,-200 v -6 q -51,-14 -85.5,-56 -34.5,-42 -34.5,-98 z m 80,160 H 600 V -760 H 360 Z m 0,0 v -560 z"
       id="path1-9"
       style="fill:#8d5fd3;fill-opacity:1;stroke-width:0.711238" /></g><g
     style="fill:#8d5fd3;fill-opacity:1;stroke-width:0.711236"
     id="g23"
     transform="matrix(0.03515007,0,0,0.03515007,71.127966,151.57504)"><path
       d="m 240,-80 q -33,0 -56.5,-23.5 Q 160,-127 160,-160 v -400 q 0,-33 23.5,-56.5 Q 207,-640 240,-640 h 40 v -80 q 0,-83 58.5,-141.5 Q 397,-920 480,-920 q 83,0 141.5,58.5 Q 680,-803 680,-720 v 80 h 40 q 33,0 56.5,23.5 23.5,23.5 23.5,56.5 v 400 q 0,33 -23.5,56.5 Q 753,-80 720,-80 Z m 0,-80 H 720 V -560 H 240 Z m 240,-120 q 33,0 56.5,-23.5 Q 560,-327 560,-360 560,-393 536.5,-416.5 513,-440 480,-440 q -33,0 -56.5,23.5 -23.5,23.5 -23.5,56.5 0,33 23.5,56.5 Q 447,-280 480,-280 Z M 360,-640 h 240 v -80 q 0,-50 -35,-85 -35,-35 -85,-35 -50,0 -85,35 -35,35 -35,85 z m -120,480 v -400 z"
       id="path1-1"
       style="fill:#8d5fd3;fill-opacity:1;stroke-width:0.711236" /></g></svg>
