<?xml version="1.0" encoding="UTF-8" standalone="no"?>
<svg
   width="480"
   height="230"
   viewBox="0 0 480 230"
   fill="none"
   version="1.1"
   id="svg40"
   sodipodi:docname="feature-03.svg"
   xml:space="preserve"
   inkscape:version="1.4 (e7c3feb100, 2024-10-09)"
   xmlns:inkscape="http://www.inkscape.org/namespaces/inkscape"
   xmlns:sodipodi="http://sodipodi.sourceforge.net/DTD/sodipodi-0.dtd"
   xmlns="http://www.w3.org/2000/svg"
   xmlns:svg="http://www.w3.org/2000/svg"><sodipodi:namedview
     id="namedview40"
     pagecolor="#505050"
     bordercolor="#ffffff"
     borderopacity="1"
     inkscape:showpageshadow="0"
     inkscape:pageopacity="0"
     inkscape:pagecheckerboard="1"
     inkscape:deskcolor="#505050"
     inkscape:zoom="1.8815189"
     inkscape:cx="277.70117"
     inkscape:cy="140.04643"
     inkscape:window-width="1920"
     inkscape:window-height="1014"
     inkscape:window-x="0"
     inkscape:window-y="0"
     inkscape:window-maximized="1"
     inkscape:current-layer="svg40" /><path
     d="M 552,32 H 48 c -8.8366,0 -16,7.1634 -16,16 v 226 c 0,8.837 7.1634,16 16,16 h 504 c 8.837,0 16,-7.163 16,-16 V 48 c 0,-8.8366 -7.163,-16 -16,-16 z"
     fill="#ffffff"
     id="path1"
     clip-path="url(#clipPath64)" /><path
     d="M 68.6953,257.695 V 110.305"
     stroke="#eceff1"
     stroke-width="0.61"
     stroke-linecap="round"
     id="path2"
     clip-path="url(#clipPath63)" /><path
     d="M 93.6172,257.695 V 110.305"
     stroke="#eceff1"
     stroke-width="0.61"
     stroke-linecap="round"
     id="path3"
     clip-path="url(#clipPath62)" /><path
     d="M 118.539,257.695 V 110.305"
     stroke="#eceff1"
     stroke-width="0.61"
     stroke-linecap="round"
     id="path4"
     clip-path="url(#clipPath61)" /><path
     d="M 143.465,257.695 V 110.305"
     stroke="#eceff1"
     stroke-width="0.61"
     stroke-linecap="round"
     id="path5"
     clip-path="url(#clipPath60)" /><path
     d="M 168.387,257.695 V 110.305"
     stroke="#eceff1"
     stroke-width="0.61"
     stroke-linecap="round"
     id="path6"
     clip-path="url(#clipPath59)" /><path
     d="M 193.309,257.695 V 110.305"
     stroke="#eceff1"
     stroke-width="0.61"
     stroke-linecap="round"
     id="path7"
     clip-path="url(#clipPath58)" /><path
     d="M 218.234,257.695 V 110.305"
     stroke="#eceff1"
     stroke-width="0.61"
     stroke-linecap="round"
     id="path8"
     clip-path="url(#clipPath57)" /><path
     d="M 243.156,257.695 V 110.305"
     stroke="#eceff1"
     stroke-width="0.61"
     stroke-linecap="round"
     id="path9"
     clip-path="url(#clipPath56)" /><path
     d="M 268.078,257.695 V 110.305"
     stroke="#eceff1"
     stroke-width="0.61"
     stroke-linecap="round"
     id="path10"
     clip-path="url(#clipPath55)" /><path
     d="M 293.004,257.695 V 110.305"
     stroke="#eceff1"
     stroke-width="0.61"
     stroke-linecap="round"
     id="path11"
     clip-path="url(#clipPath54)" /><path
     d="M 317.926,257.695 V 110.305"
     stroke="#eceff1"
     stroke-width="0.61"
     stroke-linecap="round"
     id="path12"
     clip-path="url(#clipPath53)" /><path
     d="M 342.848,257.695 V 110.305"
     stroke="#eceff1"
     stroke-width="0.61"
     stroke-linecap="round"
     id="path13"
     clip-path="url(#clipPath52)" /><path
     d="M 367.773,257.695 V 110.305"
     stroke="#eceff1"
     stroke-width="0.61"
     stroke-linecap="round"
     id="path14"
     clip-path="url(#clipPath51)" /><path
     d="M 392.695,257.695 V 110.305"
     stroke="#eceff1"
     stroke-width="0.61"
     stroke-linecap="round"
     id="path15"
     clip-path="url(#clipPath50)" /><g
     style="fill:#8d5fd3;fill-opacity:1;stroke-width:0.460985"
     id="g65"
     transform="matrix(0.0542317,0,0,0.0542317,54.365575,97.072796)"><path
       d="M 380,-300 660,-480 380,-660 Z M 480,-80 Q 397,-80 324,-111.5 251,-143 197,-197 143,-251 111.5,-324 80,-397 80,-480 q 0,-83 31.5,-156 31.5,-73 85.5,-127 54,-54 127,-85.5 73,-31.5 156,-31.5 83,0 156,31.5 73,31.5 127,85.5 54,54 85.5,127 31.5,73 31.5,156 0,83 -31.5,156 -31.5,73 -85.5,127 -54,54 -127,85.5 Q 563,-80 480,-80 Z m 0,-80 q 134,0 227,-93 93,-93 93,-227 0,-134 -93,-227 -93,-93 -227,-93 -134,0 -227,93 -93,93 -93,227 0,134 93,227 93,93 227,93 z m 0,-320 z"
       id="path1-3"
       style="fill:#8d5fd3;fill-opacity:1;stroke-width:0.460985" /></g><path
     d="m 98.9219,233 c 0,-2.761 -2.2386,-5 -5,-5 -2.7614,0 -5,2.239 -5,5 v 8 c 0,2.761 2.2386,5 5,5 2.7614,0 5,-2.239 5,-5 z"
     fill="#eceff1"
     id="path18"
     clip-path="url(#clipPath49)" /><path
     d="m 123.848,198 c 0,-2.761 -2.239,-5 -5,-5 -2.762,0 -5,2.239 -5,5 v 21 c 0,2.761 2.238,5 5,5 2.761,0 5,-2.239 5,-5 z"
     fill="#eceff1"
     id="path19" /><path
     d="m 148.77,219 c 0,-2.761 -2.239,-5 -5,-5 -2.762,0 -5,2.239 -5,5 v 8 c 0,2.761 2.238,5 5,5 2.761,0 5,-2.239 5,-5 z"
     fill="#eceff1"
     id="path20"
     clip-path="url(#clipPath48)" /><path
     d="m 173.691,211 c 0,-2.761 -2.238,-5 -5,-5 -2.761,0 -5,2.239 -5,5 v 28 c 0,2.761 2.239,5 5,5 2.762,0 5,-2.239 5,-5 z"
     fill="#eceff1"
     id="path21"
     clip-path="url(#clipPath47)" /><path
     d="m 198.23,225 c 0,-2.761 -2.238,-5 -5,-5 -2.761,0 -5,2.239 -5,5 v 10 c 0,2.761 2.239,5 5,5 2.762,0 5,-2.239 5,-5 z"
     fill="#eceff1"
     id="path22"
     clip-path="url(#clipPath46)" /><path
     d="m 223.074,221 c 0,-2.761 -2.238,-5 -5,-5 -2.761,0 -5,2.239 -5,5 v 26 c 0,2.761 2.239,5 5,5 2.762,0 5,-2.239 5,-5 z"
     fill="#eceff1"
     id="path23"
     clip-path="url(#clipPath45)" /><path
     d="m 248.926,149 c 0,-2.761 -2.239,-5 -5,-5 -2.762,0 -5,2.239 -5,5 v 78 c 0,2.761 2.238,5 5,5 2.761,0 5,-2.239 5,-5 z"
     fill="#ec4899"
     id="path24"
     clip-path="url(#clipPath44)"
     style="fill:#8d5fd3;fill-opacity:1" /><path
     d="m 273.77,177 c 0,-2.761 -2.239,-5 -5,-5 -2.762,0 -5,2.239 -5,5 v 13 c 0,2.761 2.238,5 5,5 2.761,0 5,-2.239 5,-5 z"
     fill="#ec4899"
     id="path25"
     style="fill:#8d5fd3;fill-opacity:1" /><path
     d="m 298.613,150 c 0,-2.761 -2.238,-5 -5,-5 -2.761,0 -5,2.239 -5,5 v 19 c 0,2.761 2.239,5 5,5 2.762,0 5,-2.239 5,-5 z"
     fill="#ec4899"
     id="path26"
     style="fill:#8d5fd3;fill-opacity:1" /><path
     d="m 323.461,162 c 0,-2.761 -2.239,-5 -5,-5 -2.761,0 -5,2.239 -5,5 v 38 c 0,2.761 2.239,5 5,5 2.761,0 5,-2.239 5,-5 z"
     fill="#eceff1"
     id="path27"
     style="fill:#8d5fd3;fill-opacity:1" /><path
     d="m 348.152,118 c 0,-2.761 -2.238,-5 -5,-5 -2.761,0 -5,2.239 -5,5 v 47 c 0,2.761 2.239,5 5,5 2.762,0 5,-2.239 5,-5 z"
     fill="#eceff1"
     id="path28"
     style="fill:#8d5fd3;fill-opacity:1" /><path
     d="m 373.078,143 c 0,-2.761 -2.238,-5 -5,-5 -2.761,0 -5,2.239 -5,5 v 6 c 0,2.761 2.239,5 5,5 2.762,0 5,-2.239 5,-5 z"
     fill="#eceff1"
     id="path29"
     style="fill:#8d5fd3;fill-opacity:1" /><path
     d="m 398,115 c 0,-2.761 -2.239,-5 -5,-5 -2.761,0 -5,2.239 -5,5 v 21 c 0,2.761 2.239,5 5,5 2.761,0 5,-2.239 5,-5 z"
     fill="#eceff1"
     id="path30"
     style="fill:#8d5fd3;fill-opacity:1" /><path
     d="m 454,114 c 0,-2.209 -1.791,-4 -4,-4 -2.209,0 -4,1.791 -4,4 0,2.209 1.791,4 4,4 2.209,0 4,-1.791 4,-4 z"
     fill="#eceff1"
     id="path31"
     style="fill:#8d5fd3;fill-opacity:1" /><path
     d="m 492,110 h -24 c -2.209,0 -4,1.791 -4,4 0,2.209 1.791,4 4,4 h 24 c 2.209,0 4,-1.791 4,-4 0,-2.209 -1.791,-4 -4,-4 z"
     fill="#eceff1"
     id="path32"
     clip-path="url(#clipPath43)" /><path
     d="m 454,142 c 0,-2.209 -1.791,-4 -4,-4 -2.209,0 -4,1.791 -4,4 0,2.209 1.791,4 4,4 2.209,0 4,-1.791 4,-4 z"
     fill="#eceff1"
     id="path33"
     style="fill:#8d5fd3;fill-opacity:1" /><path
     d="m 484,138 h -16 c -2.209,0 -4,1.791 -4,4 0,2.209 1.791,4 4,4 h 16 c 2.209,0 4,-1.791 4,-4 0,-2.209 -1.791,-4 -4,-4 z"
     fill="#eceff1"
     id="path34"
     clip-path="url(#clipPath42)" /><path
     d="m 454,170 c 0,-2.209 -1.791,-4 -4,-4 -2.209,0 -4,1.791 -4,4 0,2.209 1.791,4 4,4 2.209,0 4,-1.791 4,-4 z"
     fill="#eceff1"
     id="path35"
     style="fill:#8d5fd3;fill-opacity:1" /><path
     d="m 480,166 h -12 c -2.209,0 -4,1.791 -4,4 0,2.209 1.791,4 4,4 h 12 c 2.209,0 4,-1.791 4,-4 0,-2.209 -1.791,-4 -4,-4 z"
     fill="#eceff1"
     id="path36"
     clip-path="url(#clipPath41)" /><path
     d="m 454,198 c 0,-2.209 -1.791,-4 -4,-4 -2.209,0 -4,1.791 -4,4 0,2.209 1.791,4 4,4 2.209,0 4,-1.791 4,-4 z"
     fill="#eceff1"
     id="path37"
     style="fill:#8d5fd3;fill-opacity:1" /><path
     d="m 485,194 h -17 c -2.209,0 -4,1.791 -4,4 0,2.209 1.791,4 4,4 h 17 c 2.209,0 4,-1.791 4,-4 0,-2.209 -1.791,-4 -4,-4 z"
     fill="#eceff1"
     id="path38"
     clip-path="url(#clipPath40)" /><path
     d="m 454,226 c 0,-2.209 -1.791,-4 -4,-4 -2.209,0 -4,1.791 -4,4 0,2.209 1.791,4 4,4 2.209,0 4,-1.791 4,-4 z"
     fill="#eceff1"
     id="path39"
     style="fill:#8d5fd3;fill-opacity:1" /><path
     d="m 474,222 h -6 c -2.209,0 -4,1.791 -4,4 0,2.209 1.791,4 4,4 h 6 c 2.209,0 4,-1.791 4,-4 0,-2.209 -1.791,-4 -4,-4 z"
     fill="#eceff1"
     id="path40" /><defs
     id="defs40"><clipPath
       clipPathUnits="userSpaceOnUse"
       id="clipPath40"><rect
         width="480"
         height="230"
         fill="#ffffff"
         id="rect41"
         x="0"
         y="0" /></clipPath><clipPath
       clipPathUnits="userSpaceOnUse"
       id="clipPath41"><rect
         width="480"
         height="230"
         fill="#ffffff"
         id="rect42"
         x="0"
         y="0" /></clipPath><clipPath
       clipPathUnits="userSpaceOnUse"
       id="clipPath42"><rect
         width="480"
         height="230"
         fill="#ffffff"
         id="rect43"
         x="0"
         y="0" /></clipPath><clipPath
       clipPathUnits="userSpaceOnUse"
       id="clipPath43"><rect
         width="480"
         height="230"
         fill="#ffffff"
         id="rect44"
         x="0"
         y="0" /></clipPath><clipPath
       clipPathUnits="userSpaceOnUse"
       id="clipPath44"><rect
         width="480"
         height="230"
         fill="#ffffff"
         id="rect45"
         x="0"
         y="0" /></clipPath><clipPath
       clipPathUnits="userSpaceOnUse"
       id="clipPath45"><rect
         width="480"
         height="230"
         fill="#ffffff"
         id="rect46"
         x="0"
         y="0" /></clipPath><clipPath
       clipPathUnits="userSpaceOnUse"
       id="clipPath46"><rect
         width="480"
         height="230"
         fill="#ffffff"
         id="rect47"
         x="0"
         y="0" /></clipPath><clipPath
       clipPathUnits="userSpaceOnUse"
       id="clipPath47"><rect
         width="480"
         height="230"
         fill="#ffffff"
         id="rect48"
         x="0"
         y="0" /></clipPath><clipPath
       clipPathUnits="userSpaceOnUse"
       id="clipPath48"><rect
         width="480"
         height="230"
         fill="#ffffff"
         id="rect49"
         x="0"
         y="0" /></clipPath><clipPath
       clipPathUnits="userSpaceOnUse"
       id="clipPath49"><rect
         width="480"
         height="230"
         fill="#ffffff"
         id="rect50"
         x="0"
         y="0" /></clipPath><clipPath
       clipPathUnits="userSpaceOnUse"
       id="clipPath50"><rect
         width="480"
         height="230"
         fill="#ffffff"
         id="rect51"
         x="0"
         y="0" /></clipPath><clipPath
       clipPathUnits="userSpaceOnUse"
       id="clipPath51"><rect
         width="480"
         height="230"
         fill="#ffffff"
         id="rect52"
         x="0"
         y="0" /></clipPath><clipPath
       clipPathUnits="userSpaceOnUse"
       id="clipPath52"><rect
         width="480"
         height="230"
         fill="#ffffff"
         id="rect53"
         x="0"
         y="0" /></clipPath><clipPath
       clipPathUnits="userSpaceOnUse"
       id="clipPath53"><rect
         width="480"
         height="230"
         fill="#ffffff"
         id="rect54"
         x="0"
         y="0" /></clipPath><clipPath
       clipPathUnits="userSpaceOnUse"
       id="clipPath54"><rect
         width="480"
         height="230"
         fill="#ffffff"
         id="rect55"
         x="0"
         y="0" /></clipPath><clipPath
       clipPathUnits="userSpaceOnUse"
       id="clipPath55"><rect
         width="480"
         height="230"
         fill="#ffffff"
         id="rect56"
         x="0"
         y="0" /></clipPath><clipPath
       clipPathUnits="userSpaceOnUse"
       id="clipPath56"><rect
         width="480"
         height="230"
         fill="#ffffff"
         id="rect57"
         x="0"
         y="0" /></clipPath><clipPath
       clipPathUnits="userSpaceOnUse"
       id="clipPath57"><rect
         width="480"
         height="230"
         fill="#ffffff"
         id="rect58"
         x="0"
         y="0" /></clipPath><clipPath
       clipPathUnits="userSpaceOnUse"
       id="clipPath58"><rect
         width="480"
         height="230"
         fill="#ffffff"
         id="rect59"
         x="0"
         y="0" /></clipPath><clipPath
       clipPathUnits="userSpaceOnUse"
       id="clipPath59"><rect
         width="480"
         height="230"
         fill="#ffffff"
         id="rect60"
         x="0"
         y="0" /></clipPath><clipPath
       clipPathUnits="userSpaceOnUse"
       id="clipPath60"><rect
         width="480"
         height="230"
         fill="#ffffff"
         id="rect61"
         x="0"
         y="0" /></clipPath><clipPath
       clipPathUnits="userSpaceOnUse"
       id="clipPath61"><rect
         width="480"
         height="230"
         fill="#ffffff"
         id="rect62"
         x="0"
         y="0" /></clipPath><clipPath
       clipPathUnits="userSpaceOnUse"
       id="clipPath62"><rect
         width="480"
         height="230"
         fill="#ffffff"
         id="rect63"
         x="0"
         y="0" /></clipPath><clipPath
       clipPathUnits="userSpaceOnUse"
       id="clipPath63"><rect
         width="480"
         height="230"
         fill="#ffffff"
         id="rect64"
         x="0"
         y="0" /></clipPath><clipPath
       clipPathUnits="userSpaceOnUse"
       id="clipPath64"><rect
         width="480"
         height="230"
         fill="#ffffff"
         id="rect65"
         x="0"
         y="0" /></clipPath></defs><path
     d="m 116.028,76.525742 -2.752,-8.96 h -0.064 q 0.016,0.32 0.048,0.96 0.032,0.64 0.064,1.376 0.032,0.72 0.032,1.312 v 5.312 h -2.16 v -11.424 h 3.296 l 2.704,8.736 h 0.048 l 2.864,-8.736 h 3.296 v 11.424 h -2.256 v -5.408 q 0,-0.544 0.016,-1.248 0.032,-0.704 0.048,-1.328 0.032,-0.64 0.048,-0.96 h -0.064 l -2.944,8.944 z m 16.83201,0 h -6.576 v -11.424 h 6.576 v 1.984 h -4.16 v 2.512 h 3.872 v 1.984 h -3.872 v 2.944 h 4.16 z m 11.85599,-5.824 q 0,1.92 -0.736,3.216 -0.736,1.296 -2.144,1.952 -1.392,0.656 -3.36,0.656 h -3.232 v -11.424 h 3.584 q 1.792,0 3.104,0.64 1.328,0.64 2.048,1.888 0.736,1.232 0.736,3.072 z m -2.512,0.064 q 0,-1.264 -0.368,-2.08 -0.368,-0.816 -1.104,-1.2 -0.72,-0.4 -1.776,-0.4 h -1.296 v 7.44 h 1.04 q 1.776,0 2.64,-0.944 0.864,-0.944 0.864,-2.816 z m 9.152,5.76 h -5.2 v -1.376 l 1.392,-0.64 v -7.392 l -1.392,-0.64 v -1.376 h 5.2 v 1.376 l -1.392,0.64 v 7.392 l 1.392,0.64 z m 8.944,0 -0.832,-2.72 h -4.16 l -0.832,2.72 h -2.608 l 4.032,-11.472 h 2.96 l 4.048,11.472 z m -2.24,-7.408 q -0.08,-0.272 -0.208,-0.688 -0.128,-0.416 -0.256,-0.848 -0.128,-0.432 -0.208,-0.752 -0.08,0.32 -0.224,0.8 -0.128,0.464 -0.256,0.896 -0.112,0.416 -0.176,0.592 l -0.816,2.656 h 2.976 z m 17.18401,4.24 q 0,1.008 -0.496,1.76 -0.496,0.752 -1.44,1.168 -0.928,0.4 -2.272,0.4 -0.592,0 -1.168,-0.08 -0.56,-0.08 -1.088,-0.224 -0.512,-0.16 -0.976,-0.384 v -2.256 q 0.816,0.352 1.68,0.656 0.88,0.288 1.744,0.288 0.592,0 0.944,-0.16 0.368,-0.16 0.528,-0.432 0.176,-0.272 0.176,-0.624 0,-0.432 -0.304,-0.736 -0.288,-0.304 -0.784,-0.56 -0.496,-0.272 -1.136,-0.576 -0.4,-0.192 -0.864,-0.448 -0.464,-0.272 -0.896,-0.656 -0.416,-0.4 -0.688,-0.96 -0.272,-0.56 -0.272,-1.344 0,-1.024 0.464,-1.744 0.48,-0.736 1.344,-1.12 0.88,-0.384 2.064,-0.384 0.896,0 1.696,0.208 0.816,0.208 1.696,0.592 l -0.784,1.888 q -0.784,-0.32 -1.408,-0.496 -0.624,-0.176 -1.28,-0.176 -0.448,0 -0.768,0.144 -0.32,0.144 -0.496,0.4 -0.16,0.256 -0.16,0.608 0,0.4 0.24,0.688 0.24,0.272 0.72,0.528 0.48,0.256 1.2,0.608 0.88,0.416 1.488,0.864 0.624,0.448 0.96,1.056 0.336,0.608 0.336,1.504 z m 8.65601,3.168 h -6.576 v -11.424 h 6.576 v 1.984 h -4.16 v 2.512 h 3.872 v 1.984 h -3.872 v 2.944 h 4.16 z m 6.78399,0 h -2.416 v -9.408 h -3.104 v -2.016 h 8.624 v 2.016 h -3.104 z m 9.58401,0 h -2.416 v -9.408 h -3.104 v -2.016 h 8.624 v 2.016 h -3.104 z m 9.13601,0 h -5.2 v -1.376 l 1.392,-0.64 v -7.392 l -1.392,-0.64 v -1.376 h 5.2 v 1.376 l -1.392,0.64 v 7.392 l 1.392,0.64 z m 12.08,0 h -3.072 l -4.976,-8.64 h -0.064 q 0.032,0.544 0.048,1.088 0.032,0.544 0.048,1.088 0.032,0.544 0.048,1.088 v 5.376 h -2.16 v -11.424 h 3.056 l 4.96,8.56 h 0.048 q -0.016,-0.528 -0.032,-1.056 -0.016,-0.528 -0.048,-1.04 -0.016,-0.528 -0.032,-1.056 v -5.408 h 2.176 z m 7.216,-6.416 h 4.528 v 5.92 q -0.896,0.304 -1.872,0.48 -0.96,0.176 -2.192,0.176 -1.696,0 -2.896,-0.672 -1.184,-0.672 -1.808,-1.984 -0.608,-1.312 -0.608,-3.232 0,-1.792 0.688,-3.104 0.704,-1.312 2.032,-2.032 1.328,-0.72 3.248,-0.72 0.912,0 1.792,0.192 0.88,0.192 1.6,0.512 l -0.8,1.936 q -0.528,-0.272 -1.2,-0.448 -0.672,-0.176 -1.408,-0.176 -1.056,0 -1.84,0.48 -0.768,0.48 -1.2,1.36 -0.416,0.864 -0.416,2.048 0,1.12 0.304,1.984 0.304,0.864 0.96,1.36 0.656,0.48 1.712,0.48 0.512,0 0.864,-0.048 0.368,-0.048 0.672,-0.112 v -2.384 h -2.16 z m 13.98401,3.248 q 0,1.008 -0.496,1.76 -0.496,0.752 -1.44,1.168 -0.928,0.4 -2.272,0.4 -0.592,0 -1.168,-0.08 -0.56,-0.08 -1.088,-0.224 -0.512,-0.16 -0.976,-0.384 v -2.256 q 0.816,0.352 1.68,0.656 0.88,0.288 1.744,0.288 0.592,0 0.944,-0.16 0.368,-0.16 0.528,-0.432 0.176,-0.272 0.176,-0.624 0,-0.432 -0.304,-0.736 -0.288,-0.304 -0.784,-0.56 -0.496,-0.272 -1.136,-0.576 -0.4,-0.192 -0.864,-0.448 -0.464,-0.272 -0.896,-0.656 -0.416,-0.4 -0.688,-0.96 -0.272,-0.56 -0.272,-1.344 0,-1.024 0.464,-1.744 0.48,-0.736 1.344,-1.12 0.88,-0.384 2.064,-0.384 0.896,0 1.696,0.208 0.816,0.208 1.696,0.592 l -0.784,1.888 q -0.784,-0.32 -1.408,-0.496 -0.624,-0.176 -1.28,-0.176 -0.448,0 -0.768,0.144 -0.32,0.144 -0.496,0.4 -0.16,0.256 -0.16,0.608 0,0.4 0.24,0.688 0.24,0.272 0.72,0.528 0.48,0.256 1.2,0.608 0.88,0.416 1.488,0.864 0.624,0.448 0.96,1.056 0.336,0.608 0.336,1.504 z"
     id="text65"
     style="font-weight:bold;font-size:16px;font-family:'Noto Serif Thai';-inkscape-font-specification:'Noto Serif Thai Bold';text-align:center;text-anchor:middle;fill:#8d5fd3;stroke-width:15.1181;paint-order:markers fill stroke"
     aria-label="MEDIA SETTINGS" /></svg>
