<?xml version="1.0" encoding="UTF-8" standalone="no"?>
<svg
   width="480"
   height="600"
   viewBox="0 0 480 600"
   fill="none"
   version="1.1"
   id="svg80"
   sodipodi:docname="feature-01.svg"
   xml:space="preserve"
   inkscape:version="1.4 (e7c3feb100, 2024-10-09)"
   xmlns:inkscape="http://www.inkscape.org/namespaces/inkscape"
   xmlns:sodipodi="http://sodipodi.sourceforge.net/DTD/sodipodi-0.dtd"
   xmlns="http://www.w3.org/2000/svg"
   xmlns:svg="http://www.w3.org/2000/svg"><sodipodi:namedview
     id="namedview80"
     pagecolor="#505050"
     bordercolor="#ffffff"
     borderopacity="1"
     inkscape:showpageshadow="0"
     inkscape:pageopacity="0"
     inkscape:pagecheckerboard="1"
     inkscape:deskcolor="#505050"
     inkscape:zoom="2.04"
     inkscape:cx="299.7549"
     inkscape:cy="109.06863"
     inkscape:window-width="1920"
     inkscape:window-height="1014"
     inkscape:window-x="0"
     inkscape:window-y="0"
     inkscape:window-maximized="1"
     inkscape:current-layer="svg80" /><path
     d="M 260,24 H 40 c -8.8366,0 -16,7.1634 -16,16 v 103 c 0,8.837 7.1634,16 16,16 h 220 c 8.837,0 16,-7.163 16,-16 V 40 c 0,-8.8366 -7.163,-16 -16,-16 z"
     fill="#ffffff"
     id="path1"
     style="filter:url(#filter0_dd_753_699)"
     clip-path="url(#clipPath105)" /><path
     d="m 78.3335,130.998 v -0.303 h 0.122 v -0.062 h -0.311 v 0.062 h 0.122 v 0.303 z m 0.604,0 v -0.365 h -0.095 l -0.11,0.251 -0.11,-0.251 h -0.095 v 0.365 h 0.067 v -0.275 l 0.103,0.237 h 0.07 l 0.103,-0.238 v 0.276 z"
     fill="#f79e1b"
     id="path5"
     style="filter:url(#filter0_dd_753_699)"
     clip-path="url(#clipPath101)" /><path
     d="m 182,125 c 0,-1.381 -1.119,-2.5 -2.5,-2.5 -1.381,0 -2.5,1.119 -2.5,2.5 0,1.381 1.119,2.5 2.5,2.5 1.381,0 2.5,-1.119 2.5,-2.5 z"
     fill="#cbd5e1"
     id="path6"
     style="filter:url(#filter0_dd_753_699)"
     clip-path="url(#clipPath100)" /><path
     d="m 191,125 c 0,-1.381 -1.119,-2.5 -2.5,-2.5 -1.381,0 -2.5,1.119 -2.5,2.5 0,1.381 1.119,2.5 2.5,2.5 1.381,0 2.5,-1.119 2.5,-2.5 z"
     fill="#cbd5e1"
     id="path7"
     style="filter:url(#filter0_dd_753_699)"
     clip-path="url(#clipPath99)" /><path
     d="m 200,125 c 0,-1.381 -1.119,-2.5 -2.5,-2.5 -1.381,0 -2.5,1.119 -2.5,2.5 0,1.381 1.119,2.5 2.5,2.5 1.381,0 2.5,-1.119 2.5,-2.5 z"
     fill="#cbd5e1"
     id="path8"
     style="filter:url(#filter0_dd_753_699)"
     clip-path="url(#clipPath98)" /><path
     d="m 209,125 c 0,-1.381 -1.119,-2.5 -2.5,-2.5 -1.381,0 -2.5,1.119 -2.5,2.5 0,1.381 1.119,2.5 2.5,2.5 1.381,0 2.5,-1.119 2.5,-2.5 z"
     fill="#cbd5e1"
     id="path9"
     style="filter:url(#filter0_dd_753_699)"
     clip-path="url(#clipPath97)" /><path
     d="m 248,121 h -29 c -2.209,0 -4,1.791 -4,4 0,2.209 1.791,4 4,4 h 29 c 2.209,0 4,-1.791 4,-4 0,-2.209 -1.791,-4 -4,-4 z"
     fill="#cbd5e1"
     id="path10"
     style="filter:url(#filter0_dd_753_699)"
     clip-path="url(#clipPath96)" /><path
     d="M 98,48 H 52 c -2.2091,0 -4,1.7909 -4,4 0,2.2091 1.7909,4 4,4 h 46 c 2.209,0 4,-1.7909 4,-4 0,-2.2091 -1.791,-4 -4,-4 z"
     fill="#cbd5e1"
     id="path11"
     style="filter:url(#filter0_dd_753_699)"
     clip-path="url(#clipPath95)" /><path
     d="M 161.889,73 H 57.1111 C 52.0792,73 48,77.2533 48,82.5 48,87.7467 52.0792,92 57.1111,92 H 161.889 C 166.921,92 171,87.7467 171,82.5 171,77.2533 166.921,73 161.889,73 Z"
     fill="#e2e8f0"
     id="path12"
     style="filter:url(#filter0_dd_753_699)"
     clip-path="url(#clipPath94)" /><path
     d="M 260,25.25 H 40 c -8.1462,0 -14.75,6.6038 -14.75,14.75 v 103 c 0,8.146 6.6038,14.75 14.75,14.75 h 220 c 8.146,0 14.75,-6.604 14.75,-14.75 V 40 c 0,-8.1462 -6.604,-14.75 -14.75,-14.75 z"
     stroke="#ec4899"
     stroke-width="2.5"
     id="path13"
     style="filter:url(#filter0_dd_753_699);fill:none;fill-opacity:1;stroke:#8d5fd3;stroke-opacity:1"
     clip-path="url(#clipPath93)" /><path
     d="M 544,191 H 40 c -8.8366,0 -16,7.163 -16,16 v 226 c 0,8.837 7.1634,16 16,16 h 504 c 8.837,0 16,-7.163 16,-16 V 207 c 0,-8.837 -7.163,-16 -16,-16 z"
     fill="#ffffff"
     id="path14"
     clip-path="url(#clipPath91)" /><path
     d="M 60.6953,416.695 V 269.305"
     stroke="#cbd5e1"
     stroke-width="0.61"
     stroke-linecap="round"
     id="path15" /><path
     d="M 85.6172,416.695 V 269.305"
     stroke="#cbd5e1"
     stroke-width="0.61"
     stroke-linecap="round"
     id="path16" /><path
     d="M 110.539,416.695 V 269.305"
     stroke="#cbd5e1"
     stroke-width="0.61"
     stroke-linecap="round"
     id="path17" /><path
     d="M 135.465,416.695 V 269.305"
     stroke="#cbd5e1"
     stroke-width="0.61"
     stroke-linecap="round"
     id="path18" /><path
     d="M 160.387,416.695 V 269.305"
     stroke="#cbd5e1"
     stroke-width="0.61"
     stroke-linecap="round"
     id="path19" /><path
     d="M 185.309,416.695 V 269.305"
     stroke="#cbd5e1"
     stroke-width="0.61"
     stroke-linecap="round"
     id="path20" /><path
     d="M 210.234,416.695 V 269.305"
     stroke="#cbd5e1"
     stroke-width="0.61"
     stroke-linecap="round"
     id="path21" /><path
     d="M 235.156,416.695 V 269.305"
     stroke="#cbd5e1"
     stroke-width="0.61"
     stroke-linecap="round"
     id="path22" /><path
     d="M 260.078,416.695 V 269.305"
     stroke="#cbd5e1"
     stroke-width="0.61"
     stroke-linecap="round"
     id="path23" /><path
     d="M 285.004,416.695 V 269.305"
     stroke="#cbd5e1"
     stroke-width="0.61"
     stroke-linecap="round"
     id="path24" /><path
     d="M 309.926,416.695 V 269.305"
     stroke="#cbd5e1"
     stroke-width="0.61"
     stroke-linecap="round"
     id="path25" /><path
     d="M 334.848,416.695 V 269.305"
     stroke="#cbd5e1"
     stroke-width="0.61"
     stroke-linecap="round"
     id="path26" /><path
     d="M 359.773,416.695 V 269.305"
     stroke="#cbd5e1"
     stroke-width="0.61"
     stroke-linecap="round"
     id="path27" /><path
     d="M 384.695,416.695 V 269.305"
     stroke="#cbd5e1"
     stroke-width="0.61"
     stroke-linecap="round"
     id="path28" /><path
     d="M 83,223 H 63 c -3.866,0 -7,3.134 -7,7 0,3.866 3.134,7 7,7 h 20 c 3.866,0 7,-3.134 7,-7 0,-3.866 -3.134,-7 -7,-7 z"
     fill="#cbd5e1"
     id="path29" /><path
     d="m 159,223 h -54 c -3.866,0 -7,3.134 -7,7 0,3.866 3.134,7 7,7 h 54 c 3.866,0 7,-3.134 7,-7 0,-3.866 -3.134,-7 -7,-7 z"
     fill="#cbd5e1"
     id="path30" /><path
     d="m 66,400 c 0,-2.761 -2.2386,-5 -5,-5 -2.7614,0 -5,2.239 -5,5 v 12 c 0,2.761 2.2386,5 5,5 2.7614,0 5,-2.239 5,-5 z"
     fill="#94a3b8"
     id="path31" /><path
     d="m 90.9219,392 c 0,-2.761 -2.2386,-5 -5,-5 -2.7614,0 -5,2.239 -5,5 v 8 c 0,2.761 2.2386,5 5,5 2.7614,0 5,-2.239 5,-5 z"
     fill="#94a3b8"
     id="path32" /><path
     d="m 115.848,357 c 0,-2.761 -2.239,-5 -5,-5 -2.762,0 -5,2.239 -5,5 v 21 c 0,2.761 2.238,5 5,5 2.761,0 5,-2.239 5,-5 z"
     fill="#94a3b8"
     id="path33" /><path
     d="m 140.77,378 c 0,-2.761 -2.239,-5 -5,-5 -2.762,0 -5,2.239 -5,5 v 8 c 0,2.761 2.238,5 5,5 2.761,0 5,-2.239 5,-5 z"
     fill="#94a3b8"
     id="path34" /><path
     d="m 165.691,370 c 0,-2.761 -2.238,-5 -5,-5 -2.761,0 -5,2.239 -5,5 v 28 c 0,2.761 2.239,5 5,5 2.762,0 5,-2.239 5,-5 z"
     fill="#94a3b8"
     id="path35" /><path
     d="m 190.23,384 c 0,-2.761 -2.238,-5 -5,-5 -2.761,0 -5,2.239 -5,5 v 10 c 0,2.761 2.239,5 5,5 2.762,0 5,-2.239 5,-5 z"
     fill="#94a3b8"
     id="path36" /><path
     d="m 215.074,380 c 0,-2.761 -2.238,-5 -5,-5 -2.761,0 -5,2.239 -5,5 v 26 c 0,2.761 2.239,5 5,5 2.762,0 5,-2.239 5,-5 z"
     fill="#94a3b8"
     id="path37" /><path
     d="m 240.926,308 c 0,-2.761 -2.239,-5 -5,-5 -2.762,0 -5,2.239 -5,5 v 78 c 0,2.761 2.238,5 5,5 2.761,0 5,-2.239 5,-5 z"
     fill="#94a3b8"
     id="path38" /><path
     d="m 265.77,336 c 0,-2.761 -2.239,-5 -5,-5 -2.762,0 -5,2.239 -5,5 v 13 c 0,2.761 2.238,5 5,5 2.761,0 5,-2.239 5,-5 z"
     fill="#94a3b8"
     id="path39" /><path
     d="m 290.613,309 c 0,-2.761 -2.238,-5 -5,-5 -2.761,0 -5,2.239 -5,5 v 19 c 0,2.761 2.239,5 5,5 2.762,0 5,-2.239 5,-5 z"
     fill="#94a3b8"
     id="path40" /><path
     d="m 315.461,321 c 0,-2.761 -2.239,-5 -5,-5 -2.761,0 -5,2.239 -5,5 v 38 c 0,2.761 2.239,5 5,5 2.761,0 5,-2.239 5,-5 z"
     fill="#94a3b8"
     id="path41" /><path
     d="m 340.152,277 c 0,-2.761 -2.238,-5 -5,-5 -2.761,0 -5,2.239 -5,5 v 47 c 0,2.761 2.239,5 5,5 2.762,0 5,-2.239 5,-5 z"
     fill="#94a3b8"
     id="path42" /><path
     d="m 365.078,302 c 0,-2.761 -2.238,-5 -5,-5 -2.761,0 -5,2.239 -5,5 v 6 c 0,2.761 2.239,5 5,5 2.762,0 5,-2.239 5,-5 z"
     fill="#94a3b8"
     id="path43" /><path
     d="m 390,274 c 0,-2.761 -2.239,-5 -5,-5 -2.761,0 -5,2.239 -5,5 v 21 c 0,2.761 2.239,5 5,5 2.761,0 5,-2.239 5,-5 z"
     fill="#94a3b8"
     id="path44" /><path
     d="m 446,273 c 0,-2.209 -1.791,-4 -4,-4 -2.209,0 -4,1.791 -4,4 0,2.209 1.791,4 4,4 2.209,0 4,-1.791 4,-4 z"
     fill="#cbd5e1"
     id="path45" /><path
     d="m 484,269 h -24 c -2.209,0 -4,1.791 -4,4 0,2.209 1.791,4 4,4 h 24 c 2.209,0 4,-1.791 4,-4 0,-2.209 -1.791,-4 -4,-4 z"
     fill="#cbd5e1"
     id="path46"
     clip-path="url(#clipPath90)" /><path
     d="m 446,301 c 0,-2.209 -1.791,-4 -4,-4 -2.209,0 -4,1.791 -4,4 0,2.209 1.791,4 4,4 2.209,0 4,-1.791 4,-4 z"
     fill="#94a3b8"
     id="path47" /><path
     d="m 476,297 h -16 c -2.209,0 -4,1.791 -4,4 0,2.209 1.791,4 4,4 h 16 c 2.209,0 4,-1.791 4,-4 0,-2.209 -1.791,-4 -4,-4 z"
     fill="#cbd5e1"
     id="path48" /><path
     d="m 446,329 c 0,-2.209 -1.791,-4 -4,-4 -2.209,0 -4,1.791 -4,4 0,2.209 1.791,4 4,4 2.209,0 4,-1.791 4,-4 z"
     fill="#cbd5e1"
     id="path49" /><path
     d="m 472,325 h -12 c -2.209,0 -4,1.791 -4,4 0,2.209 1.791,4 4,4 h 12 c 2.209,0 4,-1.791 4,-4 0,-2.209 -1.791,-4 -4,-4 z"
     fill="#cbd5e1"
     id="path50" /><path
     d="m 446,357 c 0,-2.209 -1.791,-4 -4,-4 -2.209,0 -4,1.791 -4,4 0,2.209 1.791,4 4,4 2.209,0 4,-1.791 4,-4 z"
     fill="#94a3b8"
     id="path51" /><path
     d="m 477,353 h -17 c -2.209,0 -4,1.791 -4,4 0,2.209 1.791,4 4,4 h 17 c 2.209,0 4,-1.791 4,-4 0,-2.209 -1.791,-4 -4,-4 z"
     fill="#cbd5e1"
     id="path52" /><path
     d="m 446,385 c 0,-2.209 -1.791,-4 -4,-4 -2.209,0 -4,1.791 -4,4 0,2.209 1.791,4 4,4 2.209,0 4,-1.791 4,-4 z"
     fill="#cbd5e1"
     id="path53" /><path
     d="m 466,381 h -6 c -2.209,0 -4,1.791 -4,4 0,2.209 1.791,4 4,4 h 6 c 2.209,0 4,-1.791 4,-4 0,-2.209 -1.791,-4 -4,-4 z"
     fill="#cbd5e1"
     id="path54" /><path
     d="m 510,381 h -30 c -2.209,0 -4,1.791 -4,4 0,2.209 1.791,4 4,4 h 30 c 2.209,0 4,-1.791 4,-4 0,-2.209 -1.791,-4 -4,-4 z"
     fill="#cbd5e1"
     id="path55"
     clip-path="url(#clipPath89)" /><path
     d="m 446,413 c 0,-2.209 -1.791,-4 -4,-4 -2.209,0 -4,1.791 -4,4 0,2.209 1.791,4 4,4 2.209,0 4,-1.791 4,-4 z"
     fill="#cbd5e1"
     id="path56" /><path
     d="m 481,409 h -21 c -2.209,0 -4,1.791 -4,4 0,2.209 1.791,4 4,4 h 21 c 2.209,0 4,-1.791 4,-4 0,-2.209 -1.791,-4 -4,-4 z"
     fill="#cbd5e1"
     id="path57"
     clip-path="url(#clipPath88)" /><path
     d="M 259,481 H 40 c -8.8366,0 -16,7.163 -16,16 v 151 c 0,8.837 7.1634,16 16,16 h 219 c 8.837,0 16,-7.163 16,-16 V 497 c 0,-8.837 -7.163,-16 -16,-16 z"
     fill="#ffffff"
     id="path58"
     clip-path="url(#clipPath87)" /><path
     opacity="0.3"
     d="M 58.597,626.412 56,632 h 187 v -55.301 l -2.597,0.527 c -2.597,0.528 -7.792,1.583 -12.986,6.335 -5.195,4.751 -10.389,13.2 -15.584,16.606 -5.194,3.406 -10.389,1.77 -15.583,-8.509 -5.194,-10.278 -10.389,-29.199 -15.583,-32.205 -5.195,-3.006 -10.389,9.903 -15.584,10.815 -5.194,0.911 -10.389,-10.176 -15.583,-6.805 -5.194,3.371 -10.389,21.199 -15.583,26.17 -5.195,4.97 -10.389,-2.916 -15.584,-0.206 -5.194,2.709 -10.389,16.015 -15.583,21.882 -5.194,5.868 -10.389,4.297 -15.583,0.917 -5.195,-3.379 -10.389,-8.567 -15.584,-5.573 -5.194,2.995 -10.389,14.171 -12.986,19.759 z"
     fill="#e2e8f0"
     id="path59"
     clip-path="url(#clipPath86)" /><path
     d="m 56,632 2.597,-5.588 c 2.597,-5.588 7.792,-16.764 12.986,-19.759 5.195,-2.994 10.389,2.194 15.584,5.573 5.194,3.38 10.389,4.951 15.583,-0.917 5.194,-5.867 10.389,-19.173 15.583,-21.882 5.195,-2.71 10.389,5.176 15.584,0.206 5.194,-4.971 10.389,-22.799 15.583,-26.17 5.194,-3.371 10.389,7.716 15.583,6.805 5.195,-0.912 10.389,-13.821 15.584,-10.815 5.194,3.006 10.389,21.927 15.583,32.205 5.194,10.279 10.389,11.915 15.583,8.509 5.195,-3.406 10.389,-11.855 15.584,-16.606 5.194,-4.752 10.389,-5.807 12.986,-6.335 L 243,576.699"
     stroke="#e2e8f0"
     stroke-width="2"
     stroke-linecap="round"
     id="path60"
     clip-path="url(#clipPath85)" /><path
     d="M 107,513 H 63 c -3.866,0 -7,3.134 -7,7 0,3.866 3.134,7 7,7 h 44 c 3.866,0 7,-3.134 7,-7 0,-3.866 -3.134,-7 -7,-7 z"
     fill="#cbd5e1"
     id="path61" /><path
     d="m 143,513 h -14 c -3.866,0 -7,3.134 -7,7 0,3.866 3.134,7 7,7 h 14 c 3.866,0 7,-3.134 7,-7 0,-3.866 -3.134,-7 -7,-7 z"
     fill="#cbd5e1"
     id="path62" /><path
     d="M 544,481 H 325 c -8.837,0 -16,7.163 -16,16 v 151 c 0,8.837 7.163,16 16,16 h 219 c 8.837,0 16,-7.163 16,-16 V 497 c 0,-8.837 -7.163,-16 -16,-16 z"
     fill="#ffffff"
     id="path63"
     clip-path="url(#clipPath84)" /><path
     d="m 375,513 h -27 c -3.866,0 -7,3.134 -7,7 0,3.866 3.134,7 7,7 h 27 c 3.866,0 7,-3.134 7,-7 0,-3.866 -3.134,-7 -7,-7 z"
     fill="#cbd5e1"
     id="path64" /><path
     d="m 387.706,565.699 c 4.955,1.697 9.408,4.602 12.957,8.453 3.549,3.851 6.082,8.526 7.37,13.602 1.288,5.076 1.289,10.393 0.005,15.47 -1.284,5.077 -3.813,9.754 -7.36,13.607 -3.546,3.853 -7.997,6.762 -12.95,8.462 -4.953,1.701 -10.252,2.139 -15.417,1.277 -5.166,-0.863 -10.034,-3 -14.166,-6.218 -4.132,-3.217 -7.396,-7.415 -9.497,-12.211"
     stroke="#94a3b8"
     stroke-width="10"
     stroke-linecap="round"
     id="path66"
     clip-path="url(#clipPath83)" /><path
     d="m 346.379,590.623 c 0.926,-5.914 3.519,-11.441 7.474,-15.935 3.954,-4.494 9.108,-7.767 14.856,-9.438"
     stroke="#cbd5e1"
     stroke-width="10"
     stroke-linecap="round"
     id="path67" /><path
     d="m 466,578 c 0,-3.314 -2.686,-6 -6,-6 -3.314,0 -6,2.686 -6,6 0,3.314 2.686,6 6,6 3.314,0 6,-2.686 6,-6 z"
     fill="#cbd5e1"
     id="path68" /><path
     d="m 498,574 h -16 c -2.209,0 -4,1.791 -4,4 0,2.209 1.791,4 4,4 h 16 c 2.209,0 4,-1.791 4,-4 0,-2.209 -1.791,-4 -4,-4 z"
     fill="#cbd5e1"
     id="path69"
     clip-path="url(#clipPath82)" /><path
     d="M 544,24 H 324 c -8.837,0 -16,7.1634 -16,16 v 103 c 0,8.837 7.163,16 16,16 h 220 c 8.837,0 16,-7.163 16,-16 V 40 c 0,-8.8366 -7.163,-16 -16,-16 z"
     fill="#ffffff"
     id="path70"
     clip-path="url(#clipPath81)" /><path
     d="m 466,127 c 0,-1.381 -1.119,-2.5 -2.5,-2.5 -1.381,0 -2.5,1.119 -2.5,2.5 0,1.381 1.119,2.5 2.5,2.5 1.381,0 2.5,-1.119 2.5,-2.5 z"
     fill="#eceff1"
     id="path72" /><path
     d="m 475,127 c 0,-1.381 -1.119,-2.5 -2.5,-2.5 -1.381,0 -2.5,1.119 -2.5,2.5 0,1.381 1.119,2.5 2.5,2.5 1.381,0 2.5,-1.119 2.5,-2.5 z"
     fill="#eceff1"
     id="path73" /><path
     d="m 484,127 c 0,-1.381 -1.119,-2.5 -2.5,-2.5 -1.381,0 -2.5,1.119 -2.5,2.5 0,1.381 1.119,2.5 2.5,2.5 1.381,0 2.5,-1.119 2.5,-2.5 z"
     fill="#eceff1"
     id="path74"
     clip-path="url(#clipPath80)" /><path
     d="m 344,48 h -8 c -2.209,0 -4,1.7909 -4,4 0,2.2091 1.791,4 4,4 h 8 c 2.209,0 4,-1.7909 4,-4 0,-2.2091 -1.791,-4 -4,-4 z"
     fill="#eceff1"
     id="path75" /><path
     d="m 394,48 h -36 c -2.209,0 -4,1.7909 -4,4 0,2.2091 1.791,4 4,4 h 36 c 2.209,0 4,-1.7909 4,-4 0,-2.2091 -1.791,-4 -4,-4 z"
     fill="#eceff1"
     id="path76" /><defs
     id="defs80"><filter
       id="filter0_dd_753_699"
       x="-8"
       y="2"
       width="316"
       height="199"
       filterUnits="userSpaceOnUse"
       color-interpolation-filters="sRGB"><feFlood
         flood-opacity="0"
         result="BackgroundImageFix"
         id="feFlood76" /><feColorMatrix
         in="SourceAlpha"
         type="matrix"
         values="0 0 0 0 0 0 0 0 0 0 0 0 0 0 0 0 0 0 127 0"
         result="hardAlpha"
         id="feColorMatrix76" /><feOffset
         dy="10"
         id="feOffset76" /><feGaussianBlur
         stdDeviation="16"
         id="feGaussianBlur76" /><feColorMatrix
         type="matrix"
         values="0 0 0 0 0.0941176 0 0 0 0 0.152941 0 0 0 0 0.294118 0 0 0 0.06 0"
         id="feColorMatrix77" /><feBlend
         mode="normal"
         in2="BackgroundImageFix"
         result="effect1_dropShadow_753_699"
         id="feBlend77" /><feColorMatrix
         in="SourceAlpha"
         type="matrix"
         values="0 0 0 0 0 0 0 0 0 0 0 0 0 0 0 0 0 0 127 0"
         result="hardAlpha"
         id="feColorMatrix78" /><feOffset
         dy="6"
         id="feOffset78" /><feGaussianBlur
         stdDeviation="7"
         id="feGaussianBlur78" /><feColorMatrix
         type="matrix"
         values="0 0 0 0 0.0941176 0 0 0 0 0.152941 0 0 0 0 0.294118 0 0 0 0.08 0"
         id="feColorMatrix79" /><feBlend
         mode="normal"
         in2="effect1_dropShadow_753_699"
         result="effect2_dropShadow_753_699"
         id="feBlend79" /><feBlend
         mode="normal"
         in="SourceGraphic"
         in2="effect2_dropShadow_753_699"
         result="shape"
         id="feBlend80" /></filter><clipPath
       clipPathUnits="userSpaceOnUse"
       id="clipPath80"><rect
         width="480"
         height="600"
         fill="#ffffff"
         id="rect81"
         x="0"
         y="0" /></clipPath><clipPath
       clipPathUnits="userSpaceOnUse"
       id="clipPath81"><rect
         width="480"
         height="600"
         fill="#ffffff"
         id="rect82"
         x="0"
         y="0" /></clipPath><clipPath
       clipPathUnits="userSpaceOnUse"
       id="clipPath82"><rect
         width="480"
         height="600"
         fill="#ffffff"
         id="rect83"
         x="0"
         y="0" /></clipPath><clipPath
       clipPathUnits="userSpaceOnUse"
       id="clipPath83"><rect
         width="480"
         height="600"
         fill="#ffffff"
         id="rect84"
         x="0"
         y="0" /></clipPath><clipPath
       clipPathUnits="userSpaceOnUse"
       id="clipPath84"><rect
         width="480"
         height="600"
         fill="#ffffff"
         id="rect85"
         x="0"
         y="0" /></clipPath><clipPath
       clipPathUnits="userSpaceOnUse"
       id="clipPath85"><rect
         width="480"
         height="600"
         fill="#ffffff"
         id="rect86"
         x="0"
         y="0" /></clipPath><clipPath
       clipPathUnits="userSpaceOnUse"
       id="clipPath86"><rect
         width="480"
         height="600"
         fill="#ffffff"
         id="rect87"
         x="0"
         y="0" /></clipPath><clipPath
       clipPathUnits="userSpaceOnUse"
       id="clipPath87"><rect
         width="480"
         height="600"
         fill="#ffffff"
         id="rect88"
         x="0"
         y="0" /></clipPath><clipPath
       clipPathUnits="userSpaceOnUse"
       id="clipPath88"><rect
         width="480"
         height="600"
         fill="#ffffff"
         id="rect89"
         x="0"
         y="0" /></clipPath><clipPath
       clipPathUnits="userSpaceOnUse"
       id="clipPath89"><rect
         width="480"
         height="600"
         fill="#ffffff"
         id="rect90"
         x="0"
         y="0" /></clipPath><clipPath
       clipPathUnits="userSpaceOnUse"
       id="clipPath90"><rect
         width="480"
         height="600"
         fill="#ffffff"
         id="rect91"
         x="0"
         y="0" /></clipPath><clipPath
       clipPathUnits="userSpaceOnUse"
       id="clipPath91"><rect
         width="480"
         height="600"
         fill="#ffffff"
         id="rect92"
         x="0"
         y="0" /></clipPath><clipPath
       clipPathUnits="userSpaceOnUse"
       id="clipPath93"><rect
         width="480"
         height="600"
         fill="#ffffff"
         id="rect94"
         x="0"
         y="0" /></clipPath><clipPath
       clipPathUnits="userSpaceOnUse"
       id="clipPath94"><rect
         width="480"
         height="600"
         fill="#ffffff"
         id="rect95"
         x="0"
         y="0" /></clipPath><clipPath
       clipPathUnits="userSpaceOnUse"
       id="clipPath95"><rect
         width="480"
         height="600"
         fill="#ffffff"
         id="rect96"
         x="0"
         y="0" /></clipPath><clipPath
       clipPathUnits="userSpaceOnUse"
       id="clipPath96"><rect
         width="480"
         height="600"
         fill="#ffffff"
         id="rect97"
         x="0"
         y="0" /></clipPath><clipPath
       clipPathUnits="userSpaceOnUse"
       id="clipPath97"><rect
         width="480"
         height="600"
         fill="#ffffff"
         id="rect98"
         x="0"
         y="0" /></clipPath><clipPath
       clipPathUnits="userSpaceOnUse"
       id="clipPath98"><rect
         width="480"
         height="600"
         fill="#ffffff"
         id="rect99"
         x="0"
         y="0" /></clipPath><clipPath
       clipPathUnits="userSpaceOnUse"
       id="clipPath99"><rect
         width="480"
         height="600"
         fill="#ffffff"
         id="rect100"
         x="0"
         y="0" /></clipPath><clipPath
       clipPathUnits="userSpaceOnUse"
       id="clipPath100"><rect
         width="480"
         height="600"
         fill="#ffffff"
         id="rect101"
         x="0"
         y="0" /></clipPath><clipPath
       clipPathUnits="userSpaceOnUse"
       id="clipPath101"><rect
         width="480"
         height="600"
         fill="#ffffff"
         id="rect102"
         x="0"
         y="0" /></clipPath><clipPath
       clipPathUnits="userSpaceOnUse"
       id="clipPath102"><rect
         width="480"
         height="600"
         fill="#ffffff"
         id="rect103"
         x="0"
         y="0" /></clipPath><clipPath
       clipPathUnits="userSpaceOnUse"
       id="clipPath103"><rect
         width="480"
         height="600"
         fill="#ffffff"
         id="rect104"
         x="0"
         y="0" /></clipPath><clipPath
       clipPathUnits="userSpaceOnUse"
       id="clipPath104"><rect
         width="480"
         height="600"
         fill="#ffffff"
         id="rect105"
         x="0"
         y="0" /></clipPath><clipPath
       clipPathUnits="userSpaceOnUse"
       id="clipPath105"><rect
         width="480"
         height="600"
         fill="#ffffff"
         id="rect106"
         x="0"
         y="0" /></clipPath></defs><g
     style="fill:#8d5fd3;fill-opacity:1;stroke-width:0.423676"
     id="g106"
     transform="matrix(0.05900735,0,0,0.05900735,39.500004,150.09314)"><path
       d="m 420,-360 h 120 l -23,-129 q 20,-10 31.5,-29 11.5,-19 11.5,-42 0,-33 -23.5,-56.5 Q 513,-640 480,-640 q -33,0 -56.5,23.5 -23.5,23.5 -23.5,56.5 0,23 11.5,42 11.5,19 31.5,29 z m 60,280 Q 341,-115 250.5,-239.5 160,-364 160,-516 v -244 l 320,-120 320,120 v 244 q 0,152 -90.5,276.5 Q 619,-115 480,-80 Z m 0,-84 q 104,-33 172,-132 68,-99 68,-220 v -189 l -240,-90 -240,90 v 189 q 0,121 68,220 68,99 172,132 z m 0,-316 z"
       id="path1-3"
       style="fill:#8d5fd3;fill-opacity:1;stroke-width:0.423676" /></g><g
     id="g114"><path
       d="m 328.45568,121.25618 q 1.216,0 2.08,0.464 0.88,0.464 1.36,1.344 0.48,0.88 0.48,2.16 v 1.152 h -5.632 q 0.032,1.008 0.592,1.584 0.576,0.576 1.584,0.576 0.848,0 1.536,-0.16 0.688,-0.176 1.424,-0.528 v 1.84 q -0.64,0.32 -1.36,0.464 -0.704,0.16 -1.712,0.16 -1.312,0 -2.32,-0.48 -1.008,-0.496 -1.584,-1.488 -0.576,-0.992 -0.576,-2.496 0,-1.536 0.512,-2.544 0.528,-1.024 1.456,-1.536 0.928,-0.512 2.16,-0.512 z m 0.016,1.696 q -0.688,0 -1.152,0.448 -0.448,0.448 -0.528,1.392 h 3.344 q 0,-0.528 -0.192,-0.944 -0.176,-0.416 -0.544,-0.656 -0.368,-0.24 -0.928,-0.24 z m 10.79999,-1.696 q 1.408,0 2.256,0.768 0.848,0.752 0.848,2.432 v 5.696 h -2.384 v -5.104 q 0,-0.944 -0.336,-1.408 -0.336,-0.48 -1.072,-0.48 -1.088,0 -1.488,0.752 -0.4,0.736 -0.4,2.128 v 4.112 h -2.384 v -8.736 h 1.824 l 0.32,1.12 h 0.128 q 0.288,-0.448 0.704,-0.72 0.416,-0.288 0.928,-0.416 0.512,-0.144 1.056,-0.144 z m 9.104,9.056 q -1.296,0 -2.208,-0.464 -0.912,-0.48 -1.392,-1.472 -0.48,-0.992 -0.48,-2.544 0,-1.6 0.544,-2.608 0.544,-1.008 1.504,-1.488 0.976,-0.48 2.24,-0.48 0.896,0 1.552,0.176 0.672,0.176 1.168,0.416 l -0.704,1.84 q -0.56,-0.224 -1.056,-0.368 -0.48,-0.144 -0.96,-0.144 -0.624,0 -1.04,0.304 -0.416,0.288 -0.624,0.88 -0.192,0.576 -0.192,1.456 0,0.864 0.208,1.44 0.224,0.56 0.64,0.848 0.416,0.272 1.008,0.272 0.752,0 1.328,-0.192 0.576,-0.208 1.12,-0.56 v 2.032 q -0.544,0.352 -1.152,0.496 -0.592,0.16 -1.504,0.16 z m 9.552,-9.056 q 0.176,0 0.416,0.016 0.24,0.016 0.384,0.048 l -0.176,2.24 q -0.112,-0.032 -0.336,-0.048 -0.208,-0.032 -0.368,-0.032 -0.464,0 -0.896,0.128 -0.432,0.112 -0.784,0.368 -0.336,0.256 -0.544,0.688 -0.192,0.416 -0.192,1.04 v 4.448 h -2.384 v -8.736 h 1.808 l 0.352,1.472 h 0.112 q 0.256,-0.448 0.64,-0.816 0.384,-0.368 0.88,-0.592 0.512,-0.224 1.088,-0.224 z m 1.136,0.16 h 2.608 l 1.648,4.912 q 0.08,0.24 0.128,0.48 0.064,0.24 0.096,0.496 0.048,0.256 0.064,0.544 h 0.048 q 0.048,-0.416 0.128,-0.784 0.096,-0.384 0.208,-0.736 l 1.616,-4.912 h 2.56 l -3.696,9.856 q -0.336,0.896 -0.88,1.504 -0.528,0.608 -1.232,0.912 -0.704,0.304 -1.536,0.304 -0.4,0 -0.704,-0.048 -0.288,-0.032 -0.512,-0.08 v -1.888 q 0.176,0.032 0.416,0.064 0.256,0.032 0.528,0.032 0.496,0 0.848,-0.208 0.368,-0.208 0.608,-0.576 0.24,-0.352 0.384,-0.768 l 0.144,-0.432 z m 15.21601,-0.16 q 1.472,0 2.384,1.152 0.912,1.136 0.912,3.36 0,1.488 -0.432,2.512 -0.432,1.008 -1.184,1.52 -0.752,0.512 -1.744,0.512 -0.624,0 -1.088,-0.16 -0.448,-0.16 -0.768,-0.416 -0.32,-0.256 -0.56,-0.544 h -0.128 q 0.064,0.304 0.096,0.64 0.032,0.32 0.032,0.64 v 3.52 h -2.384 v -12.576 h 1.936 l 0.336,1.136 h 0.112 q 0.24,-0.352 0.576,-0.64 0.336,-0.304 0.8,-0.48 0.48,-0.176 1.104,-0.176 z m -0.768,1.904 q -0.624,0 -0.992,0.256 -0.368,0.256 -0.544,0.784 -0.16,0.512 -0.176,1.296 v 0.256 q 0,0.848 0.16,1.44 0.16,0.576 0.544,0.88 0.384,0.304 1.04,0.304 0.544,0 0.896,-0.304 0.352,-0.304 0.528,-0.896 0.176,-0.592 0.176,-1.44 0,-1.28 -0.4,-1.92 -0.384,-0.656 -1.232,-0.656 z m 9.71199,5.248 q 0.4,0 0.768,-0.08 0.368,-0.08 0.736,-0.192 v 1.776 q -0.384,0.16 -0.96,0.272 -0.56,0.128 -1.232,0.128 -0.784,0 -1.408,-0.256 -0.608,-0.256 -0.976,-0.88 -0.352,-0.64 -0.352,-1.76 v -4.208 h -1.136 v -1.008 l 1.312,-0.8 0.688,-1.84 h 1.52 v 1.856 h 2.448 v 1.792 h -2.448 v 4.208 q 0,0.496 0.288,0.752 0.288,0.24 0.752,0.24 z m 6.864,-7.152 q 1.216,0 2.08,0.464 0.88,0.464 1.36,1.344 0.48,0.88 0.48,2.16 v 1.152 h -5.632 q 0.032,1.008 0.592,1.584 0.576,0.576 1.584,0.576 0.848,0 1.536,-0.16 0.688,-0.176 1.424,-0.528 v 1.84 q -0.64,0.32 -1.36,0.464 -0.704,0.16 -1.712,0.16 -1.312,0 -2.32,-0.48 -1.008,-0.496 -1.584,-1.488 -0.576,-0.992 -0.576,-2.496 0,-1.536 0.512,-2.544 0.528,-1.024 1.456,-1.536 0.928,-0.512 2.16,-0.512 z m 0.016,1.696 q -0.688,0 -1.152,0.448 -0.448,0.448 -0.528,1.392 h 3.344 q 0,-0.528 -0.192,-0.944 -0.176,-0.416 -0.544,-0.656 -0.368,-0.24 -0.928,-0.24 z m 8.60799,7.36 q -1.456,0 -2.384,-1.136 -0.912,-1.152 -0.912,-3.376 0,-2.24 0.928,-3.392 0.928,-1.152 2.432,-1.152 0.624,0 1.104,0.176 0.48,0.16 0.816,0.448 0.352,0.288 0.592,0.656 h 0.08 q -0.048,-0.256 -0.112,-0.736 -0.064,-0.496 -0.064,-1.008 v -2.8 h 2.384 v 12.16 h -1.824 l -0.464,-1.136 h -0.096 q -0.224,0.352 -0.576,0.656 -0.336,0.288 -0.8,0.464 -0.464,0.176 -1.104,0.176 z m 0.832,-1.904 q 0.992,0 1.392,-0.576 0.4,-0.592 0.416,-1.76 v -0.256 q 0,-1.28 -0.4,-1.952 -0.384,-0.672 -1.44,-0.672 -0.784,0 -1.232,0.688 -0.448,0.672 -0.448,1.952 0,1.28 0.448,1.936 0.448,0.64 1.264,0.64 z"
       id="text106"
       style="font-weight:bold;font-size:16px;font-family:'Noto Serif Thai';-inkscape-font-specification:'Noto Serif Thai Bold';text-align:center;text-anchor:middle;fill:#94a3b8;stroke-width:15.1181;paint-order:markers fill stroke"
       aria-label="encrypted" /><g
       style="fill:#8d5fd3;fill-opacity:1;stroke-width:0.765852"
       id="g107"
       transform="matrix(0.03264339,0,0,0.03264339,404.89014,141.67733)"><path
         d="m 382,-240 -228,-228 57,-57 171,171 367,-367 57,57 z"
         id="path1-6"
         style="fill:#8d5fd3;fill-opacity:1;stroke-width:0.765852" /></g></g><g
     style="fill:#8d5fd3;fill-opacity:1;stroke-width:0.468517"
     id="g108"
     transform="matrix(0.0533599,0,0,0.0533599,218.11842,539.18142)"><path
       d="M 280,-40 Q 247,-40 223.5,-63.5 200,-87 200,-120 v -720 q 0,-33 23.5,-56.5 Q 247,-920 280,-920 h 400 q 33,0 56.5,23.5 23.5,23.5 23.5,56.5 v 720 q 0,33 -23.5,56.5 Q 713,-40 680,-40 Z m 0,-120 v 40 h 400 v -40 z m 0,-80 H 680 V -720 H 280 Z m 0,-560 h 400 v -40 H 280 Z m 0,0 v -40 z m 0,640 v 40 z"
       id="path1-7"
       style="fill:#8d5fd3;fill-opacity:1;stroke-width:0.468517" /></g><g
     style="fill:#8d5fd3;fill-opacity:1;stroke-width:0.363266"
     id="g109"
     transform="matrix(0.06881998,0,0,0.06881998,406.98195,559.21565)"><path
       d="M 480,-40 Q 447,-40 423.5,-63.5 400,-87 400,-120 q 0,-33 23.5,-56.5 23.5,-23.5 56.5,-23.5 33,0 56.5,23.5 23.5,23.5 23.5,56.5 0,33 -23.5,56.5 Q 513,-40 480,-40 Z M 240,-760 q -33,0 -56.5,-23.5 Q 160,-807 160,-840 q 0,-33 23.5,-56.5 23.5,-23.5 56.5,-23.5 33,0 56.5,23.5 23.5,23.5 23.5,56.5 0,33 -23.5,56.5 Q 273,-760 240,-760 Z m 0,240 q -33,0 -56.5,-23.5 Q 160,-567 160,-600 q 0,-33 23.5,-56.5 23.5,-23.5 56.5,-23.5 33,0 56.5,23.5 23.5,23.5 23.5,56.5 0,33 -23.5,56.5 Q 273,-520 240,-520 Z m 0,240 q -33,0 -56.5,-23.5 Q 160,-327 160,-360 q 0,-33 23.5,-56.5 23.5,-23.5 56.5,-23.5 33,0 56.5,23.5 23.5,23.5 23.5,56.5 0,33 -23.5,56.5 Q 273,-280 240,-280 Z m 480,-480 q -33,0 -56.5,-23.5 Q 640,-807 640,-840 q 0,-33 23.5,-56.5 23.5,-23.5 56.5,-23.5 33,0 56.5,23.5 23.5,23.5 23.5,56.5 0,33 -23.5,56.5 Q 753,-760 720,-760 Z m -240,480 q -33,0 -56.5,-23.5 Q 400,-327 400,-360 q 0,-33 23.5,-56.5 23.5,-23.5 56.5,-23.5 33,0 56.5,23.5 23.5,23.5 23.5,56.5 0,33 -23.5,56.5 Q 513,-280 480,-280 Z m 240,0 q -33,0 -56.5,-23.5 Q 640,-327 640,-360 q 0,-33 23.5,-56.5 23.5,-23.5 56.5,-23.5 33,0 56.5,23.5 23.5,23.5 23.5,56.5 0,33 -23.5,56.5 Q 753,-280 720,-280 Z m 0,-240 q -33,0 -56.5,-23.5 Q 640,-567 640,-600 q 0,-33 23.5,-56.5 23.5,-23.5 56.5,-23.5 33,0 56.5,23.5 23.5,23.5 23.5,56.5 0,33 -23.5,56.5 Q 753,-520 720,-520 Z m -240,0 q -33,0 -56.5,-23.5 Q 400,-567 400,-600 q 0,-33 23.5,-56.5 23.5,-23.5 56.5,-23.5 33,0 56.5,23.5 23.5,23.5 23.5,56.5 0,33 -23.5,56.5 Q 513,-520 480,-520 Z m 0,-240 q -33,0 -56.5,-23.5 Q 400,-807 400,-840 q 0,-33 23.5,-56.5 23.5,-23.5 56.5,-23.5 33,0 56.5,23.5 23.5,23.5 23.5,56.5 0,33 -23.5,56.5 Q 513,-760 480,-760 Z"
       id="path1-5"
       style="fill:#8d5fd3;fill-opacity:1;stroke-width:0.363266" /></g><g
     id="g113"
     transform="translate(0,-3.1195976)"><path
       d="m 345.28768,104.68319 q 0,0.88 -0.416,1.504 -0.416,0.608 -1.248,0.928 -0.832,0.32 -2.064,0.32 -0.912,0 -1.568,-0.128 -0.656,-0.112 -1.312,-0.384 v -1.968 q 0.704,0.32 1.52,0.528 0.816,0.208 1.44,0.208 0.704,0 0.992,-0.208 0.304,-0.208 0.304,-0.544 0,-0.224 -0.128,-0.4 -0.112,-0.176 -0.512,-0.4 -0.4,-0.224 -1.248,-0.576 -0.816,-0.352 -1.344,-0.688 -0.528,-0.352 -0.784,-0.832 -0.256,-0.496 -0.256,-1.232 0,-1.215998 0.944,-1.823998 0.944,-0.608 2.512,-0.608 0.816,0 1.552,0.16 0.736,0.16 1.52,0.528 l -0.72,1.711998 q -0.64,-0.272 -1.216,-0.448 -0.576,-0.192 -1.168,-0.192 -0.528,0 -0.8,0.144 -0.256,0.144 -0.256,0.432 0,0.208 0.128,0.384 0.144,0.16 0.528,0.352 0.4,0.192 1.168,0.512 0.752,0.304 1.296,0.64 0.544,0.32 0.832,0.816 0.304,0.48 0.304,1.264 z m 5.456,-6.303998 q 1.216,0 2.08,0.464 0.88,0.464 1.36,1.343998 0.48,0.88 0.48,2.16 v 1.152 h -5.632 q 0.032,1.008 0.592,1.584 0.576,0.576 1.584,0.576 0.848,0 1.536,-0.16 0.688,-0.176 1.424,-0.528 v 1.84 q -0.64,0.32 -1.36,0.464 -0.704,0.16 -1.712,0.16 -1.312,0 -2.32,-0.48 -1.008,-0.496 -1.584,-1.488 -0.576,-0.992 -0.576,-2.496 0,-1.536 0.512,-2.544 0.528,-1.023998 1.456,-1.535998 0.928,-0.512 2.16,-0.512 z m 0.016,1.695998 q -0.688,0 -1.152,0.448 -0.448,0.448 -0.528,1.392 h 3.344 q 0,-0.528 -0.192,-0.944 -0.176,-0.416 -0.544,-0.656 -0.368,-0.24 -0.928,-0.24 z m 9.39199,7.36 q -1.296,0 -2.208,-0.464 -0.912,-0.48 -1.392,-1.472 -0.48,-0.992 -0.48,-2.544 0,-1.6 0.544,-2.608 0.544,-1.007998 1.504,-1.487998 0.976,-0.48 2.24,-0.48 0.896,0 1.552,0.176 0.672,0.176 1.168,0.416 l -0.704,1.839998 q -0.56,-0.224 -1.056,-0.368 -0.48,-0.144 -0.96,-0.144 -0.624,0 -1.04,0.304 -0.416,0.288 -0.624,0.88 -0.192,0.576 -0.192,1.456 0,0.864 0.208,1.44 0.224,0.56 0.64,0.848 0.416,0.272 1.008,0.272 0.752,0 1.328,-0.192 0.576,-0.208 1.12,-0.56 v 2.032 q -0.544,0.352 -1.152,0.496 -0.592,0.16 -1.504,0.16 z m 12.688,-8.895998 v 8.735998 h -1.824 l -0.32,-1.12 h -0.128 q -0.272,0.448 -0.704,0.736 -0.416,0.272 -0.928,0.4 -0.512,0.144 -1.056,0.144 -0.928,0 -1.632,-0.336 -0.704,-0.336 -1.088,-1.04 -0.384,-0.704 -0.384,-1.824 v -5.695998 h 2.384 v 5.103998 q 0,0.928 0.336,1.408 0.336,0.48 1.072,0.48 0.736,0 1.136,-0.336 0.416,-0.336 0.576,-0.976 0.176,-0.64 0.176,-1.568 v -4.111998 z m 7.37599,-0.16 q 0.176,0 0.416,0.016 0.24,0.016 0.384,0.048 l -0.176,2.239998 q -0.112,-0.032 -0.336,-0.048 -0.208,-0.032 -0.368,-0.032 -0.464,0 -0.896,0.128 -0.432,0.112 -0.784,0.368 -0.336,0.256 -0.544,0.688 -0.192,0.416 -0.192,1.04 v 4.448 h -2.384 v -8.735998 h 1.808 l 0.352,1.471998 h 0.112 q 0.256,-0.447998 0.64,-0.815998 0.384,-0.368 0.88,-0.592 0.512,-0.224 1.088,-0.224 z m 5.664,0 q 1.216,0 2.08,0.464 0.88,0.464 1.36,1.343998 0.48,0.88 0.48,2.16 v 1.152 h -5.632 q 0.032,1.008 0.592,1.584 0.576,0.576 1.584,0.576 0.848,0 1.536,-0.16 0.688,-0.176 1.424,-0.528 v 1.84 q -0.64,0.32 -1.36,0.464 -0.704,0.16 -1.712,0.16 -1.312,0 -2.32,-0.48 -1.008,-0.496 -1.584,-1.488 -0.576,-0.992 -0.576,-2.496 0,-1.536 0.512,-2.544 0.528,-1.023998 1.456,-1.535998 0.928,-0.512 2.16,-0.512 z m 0.016,1.695998 q -0.688,0 -1.152,0.448 -0.448,0.448 -0.528,1.392 h 3.344 q 0,-0.528 -0.192,-0.944 -0.176,-0.416 -0.544,-0.656 -0.368,-0.24 -0.928,-0.24 z"
       id="text109"
       style="font-weight:bold;font-size:16px;font-family:'Noto Serif Thai';-inkscape-font-specification:'Noto Serif Thai Bold';text-align:center;text-anchor:middle;fill:#94a3b8;stroke-width:15.1181;paint-order:markers fill stroke"
       aria-label="secure" /><g
       style="fill:#8d5fd3;fill-opacity:1;stroke-width:0.765852"
       id="g110"
       transform="matrix(0.03264339,0,0,0.03264339,404.89014,118.80035)"><path
         d="m 382,-240 -228,-228 57,-57 171,171 367,-367 57,57 z"
         id="path109"
         style="fill:#8d5fd3;fill-opacity:1;stroke-width:0.765852" /></g></g><g
     id="g112"><path
       d="m 341.60767,69.263027 q 1.472,0 2.384,1.152 0.912,1.136 0.912,3.36 0,1.488 -0.432,2.512 -0.432,1.008 -1.184,1.52 -0.752,0.512 -1.744,0.512 -0.624,0 -1.088,-0.16 -0.448,-0.16 -0.768,-0.416 -0.32,-0.256 -0.56,-0.544 h -0.128 q 0.064,0.304 0.096,0.64 0.032,0.32 0.032,0.64 v 3.52 h -2.384 v -12.576 h 1.936 l 0.336,1.136 h 0.112 q 0.24,-0.352 0.576,-0.64 0.336,-0.304 0.8,-0.48 0.48,-0.176 1.104,-0.176 z m -0.768,1.904 q -0.624,0 -0.992,0.256 -0.368,0.256 -0.544,0.784 -0.16,0.512 -0.176,1.296 v 0.256 q 0,0.848 0.16,1.44 0.16,0.576 0.544,0.88 0.384,0.304 1.04,0.304 0.544,0 0.896,-0.304 0.352,-0.304 0.528,-0.896 0.176,-0.592 0.176,-1.44 0,-1.28 -0.4,-1.92 -0.384,-0.656 -1.232,-0.656 z m 10.91199,-1.904 q 0.176,0 0.416,0.016 0.24,0.016 0.384,0.048 l -0.176,2.24 q -0.112,-0.032 -0.336,-0.048 -0.208,-0.032 -0.368,-0.032 -0.464,0 -0.896,0.128 -0.432,0.112 -0.784,0.368 -0.336,0.256 -0.544,0.688 -0.192,0.416 -0.192,1.04 v 4.448 h -2.384 v -8.736 h 1.808 l 0.352,1.472 h 0.112 q 0.256,-0.448 0.64,-0.816 0.384,-0.368 0.88,-0.592 0.512,-0.224 1.088,-0.224 z m 4.768,0.16 v 8.736 h -2.384 v -8.736 z m -1.184,-3.424 q 0.528,0 0.912,0.256 0.384,0.24 0.384,0.912 0,0.656 -0.384,0.912 -0.384,0.256 -0.912,0.256 -0.544,0 -0.928,-0.256 -0.368,-0.256 -0.368,-0.912 0,-0.672 0.368,-0.912 0.384,-0.256 0.928,-0.256 z m 5.76001,12.16 -3.328,-8.736 h 2.496 l 1.68,4.976 q 0.096,0.288 0.16,0.608 0.08,0.32 0.112,0.624 0.048,0.304 0.064,0.56 h 0.064 q 0.016,-0.272 0.064,-0.576 0.048,-0.304 0.112,-0.608 0.08,-0.32 0.176,-0.608 l 1.68,-4.976 h 2.496 l -3.328,8.736 z m 10.608,-8.912 q 1.76,0 2.688,0.768 0.944,0.752 0.944,2.32 v 5.824 h -1.664 l -0.464,-1.184 h -0.064 q -0.368,0.464 -0.768,0.768 -0.384,0.304 -0.896,0.432 -0.496,0.144 -1.232,0.144 -0.768,0 -1.392,-0.288 -0.608,-0.304 -0.96,-0.912 -0.352,-0.624 -0.352,-1.568 0,-1.392 0.976,-2.048 0.976,-0.672 2.928,-0.736 l 1.52,-0.048 v -0.384 q 0,-0.688 -0.368,-1.008 -0.352,-0.32 -0.992,-0.32 -0.64,0 -1.248,0.192 -0.608,0.176 -1.216,0.448 l -0.784,-1.616 q 0.704,-0.368 1.552,-0.576 0.864,-0.208 1.792,-0.208 z m 0.336,4.896 q -1.152,0.032 -1.6,0.416 -0.448,0.384 -0.448,1.008 0,0.544 0.32,0.784 0.32,0.224 0.832,0.224 0.768,0 1.296,-0.448 0.528,-0.464 0.528,-1.296 v -0.72 z m 9.42401,2.272 q 0.4,0 0.768,-0.08 0.368,-0.08 0.736,-0.192 v 1.776 q -0.384,0.16 -0.96,0.272 -0.56,0.128 -1.232,0.128 -0.784,0 -1.408,-0.256 -0.608,-0.256 -0.976,-0.88 -0.352,-0.64 -0.352,-1.76 v -4.208 h -1.136 v -1.008 l 1.312,-0.8 0.688,-1.84 h 1.52 v 1.856 h 2.448 v 1.792 h -2.448 v 4.208 q 0,0.496 0.288,0.752 0.288,0.24 0.752,0.24 z m 6.864,-7.152 q 1.216,0 2.08,0.464 0.88,0.464 1.36,1.344 0.48,0.88 0.48,2.16 v 1.152 h -5.632 q 0.032,1.008 0.592,1.584 0.576,0.576 1.584,0.576 0.848,0 1.536,-0.16 0.688,-0.176 1.424,-0.528 v 1.84 q -0.64,0.32 -1.36,0.464 -0.704,0.16 -1.712,0.16 -1.312,0 -2.32,-0.48 -1.008,-0.496 -1.584,-1.488 -0.576,-0.992 -0.576,-2.496 0,-1.536 0.512,-2.544 0.528,-1.024 1.456,-1.536 0.928,-0.512 2.16,-0.512 z m 0.016,1.696 q -0.688,0 -1.152,0.448 -0.448,0.448 -0.528,1.392 h 3.344 q 0,-0.528 -0.192,-0.944 -0.176,-0.416 -0.544,-0.656 -0.368,-0.24 -0.928,-0.24 z"
       id="text110"
       style="font-weight:bold;font-size:16px;font-family:'Noto Serif Thai';-inkscape-font-specification:'Noto Serif Thai Bold';text-align:center;text-anchor:middle;fill:#94a3b8;stroke-width:15.1181;paint-order:markers fill stroke"
       aria-label="private" /><g
       style="fill:#8d5fd3;fill-opacity:1;stroke-width:0.765852"
       id="g111"
       transform="matrix(0.03264339,0,0,0.03264339,404.89014,89.684188)"><path
         d="m 382,-240 -228,-228 57,-57 171,171 367,-367 57,57 z"
         id="path110"
         style="fill:#8d5fd3;fill-opacity:1;stroke-width:0.765852" /></g></g></svg>
