<?xml version="1.0" encoding="UTF-8" standalone="no"?>
<svg
   width="480"
   height="230"
   viewBox="0 0 480 230"
   fill="none"
   version="1.1"
   id="svg21"
   sodipodi:docname="feature-02.svg"
   xml:space="preserve"
   inkscape:version="1.4 (e7c3feb100, 2024-10-09)"
   xmlns:inkscape="http://www.inkscape.org/namespaces/inkscape"
   xmlns:sodipodi="http://sodipodi.sourceforge.net/DTD/sodipodi-0.dtd"
   xmlns="http://www.w3.org/2000/svg"
   xmlns:svg="http://www.w3.org/2000/svg"><sodipodi:namedview
     id="namedview21"
     pagecolor="#505050"
     bordercolor="#ffffff"
     borderopacity="1"
     inkscape:showpageshadow="0"
     inkscape:pageopacity="0"
     inkscape:pagecheckerboard="1"
     inkscape:deskcolor="#505050"
     showguides="true"
     inkscape:zoom="2.6608696"
     inkscape:cx="185.8415"
     inkscape:cy="130.59641"
     inkscape:window-width="1920"
     inkscape:window-height="1014"
     inkscape:window-x="0"
     inkscape:window-y="0"
     inkscape:window-maximized="1"
     inkscape:current-layer="svg21"><sodipodi:guide
       position="74.142226,109.08705"
       orientation="1,0"
       id="guide24"
       inkscape:locked="false" /></sodipodi:namedview><path
     d="M 474.422,32 H 52.5778 C 41.213,32 32,39.1634 32,48 v 264 c 0,8.837 9.213,16 20.5778,16 H 474.422 C 485.787,328 495,320.837 495,312 V 48 c 0,-8.8366 -9.213,-16 -20.578,-16 z"
     fill="#ffffff"
     id="path1"
     clip-path="url(#clipPath21)" /><path
     d="m 444,77 h -5 v 5 c 0,0.55 -0.45,1 -1,1 -0.55,0 -1,-0.45 -1,-1 v -5 h -5 c -0.55,0 -1,-0.45 -1,-1 0,-0.55 0.45,-1 1,-1 h 5 v -5 c 0,-0.55 0.45,-1 1,-1 0.55,0 1,0.45 1,1 v 5 h 5 c 0.55,0 1,0.45 1,1 0,0.55 -0.45,1 -1,1 z"
     fill="#cfd8dc"
     id="path4" /><path
     d="m 74,130 c 0,-2.761 -2.2386,-5 -5,-5 -2.7614,0 -5,2.239 -5,5 0,2.761 2.2386,5 5,5 2.7614,0 5,-2.239 5,-5 z"
     fill="#ec4899"
     id="path5"
     style="fill:#8d5fd3;fill-opacity:1" /><path
     d="m 440,120 h -14 c -5.523,0 -10,4.477 -10,10 0,5.523 4.477,10 10,10 h 14 c 5.523,0 10,-4.477 10,-10 0,-5.523 -4.477,-10 -10,-10 z"
     fill="#ec4899"
     id="path8"
     style="fill:#8d5fd3;fill-opacity:1" /><path
     d="m 439.873,137 c 3.795,0 6.872,-3.134 6.872,-7 0,-3.866 -3.077,-7 -6.872,-7 -3.796,0 -6.873,3.134 -6.873,7 0,3.866 3.077,7 6.873,7 z"
     fill="#ffffff"
     id="path9" /><path
     d="m 74,169 c 0,-2.761 -2.2386,-5 -5,-5 -2.7614,0 -5,2.239 -5,5 0,2.761 2.2386,5 5,5 2.7614,0 5,-2.239 5,-5 z"
     fill="#cfd8dc"
     id="path10"
     style="fill:#8d5fd3;fill-opacity:1" /><path
     d="m 440,159 h -14 c -5.523,0 -10,4.477 -10,10 0,5.523 4.477,10 10,10 h 14 c 5.523,0 10,-4.477 10,-10 0,-5.523 -4.477,-10 -10,-10 z"
     fill="#cfd8dc"
     id="path14"
     style="fill:#8d5fd3;fill-opacity:1" /><path
     d="m 439.873,176 c 3.795,0 6.872,-3.134 6.872,-7 0,-3.866 -3.077,-7 -6.872,-7 -3.796,0 -6.873,3.134 -6.873,7 0,3.866 3.077,7 6.873,7 z"
     fill="#ffffff"
     id="path15" /><path
     d="m 74,208 c 0,-2.761 -2.2386,-5 -5,-5 -2.7614,0 -5,2.239 -5,5 0,2.761 2.2386,5 5,5 2.7614,0 5,-2.239 5,-5 z"
     fill="#03dac5"
     id="path16"
     style="fill:#cfd8dc;fill-opacity:1" /><path
     d="m 134,203 h -4 c -2.761,0 -5,2.239 -5,5 0,2.761 2.239,5 5,5 h 4 c 2.761,0 5,-2.239 5,-5 0,-2.761 -2.239,-5 -5,-5 z"
     fill="#eceff1"
     id="path18" /><path
     d="m 426,198 h 14 c 5.523,0 10,4.477 10,10 0,5.523 -4.477,10 -10,10 h -14 c -5.523,0 -10,-4.477 -10,-10 0,-5.523 4.477,-10 10,-10 z"
     fill="#cfd8dc"
     id="path20" /><path
     d="m 426.127,215 c -3.795,0 -6.872,-3.134 -6.872,-7 0,-3.866 3.077,-7 6.872,-7 3.796,0 6.873,3.134 6.873,7 0,3.866 -3.077,7 -6.873,7 z"
     fill="#ffffff"
     id="path21" /><defs
     id="defs21"><clipPath
       clipPathUnits="userSpaceOnUse"
       id="clipPath21"><rect
         width="480"
         height="230"
         fill="#ffffff"
         id="rect22"
         x="0"
         y="0" /></clipPath></defs><path
     d="m 95.2165,134.62584 q -1.456,0 -2.384,-1.136 -0.912,-1.152 -0.912,-3.376 0,-2.24 0.928,-3.392 0.928,-1.152 2.432,-1.152 0.624,0 1.104,0.176 0.48,0.16 0.816,0.448 0.352,0.288 0.592,0.656 h 0.08 q -0.048,-0.256 -0.112,-0.736 -0.064,-0.496 -0.064,-1.008 v -2.8 h 2.384 v 12.16 h -1.824 l -0.464,-1.136 h -0.096 q -0.224,0.352 -0.576,0.656 -0.336,0.288 -0.8,0.464 -0.464,0.176 -1.104,0.176 z m 0.832,-1.904 q 0.992,0 1.392,-0.576 0.4,-0.592 0.416,-1.76 v -0.256 q 0,-1.28 -0.4,-1.952 -0.384,-0.672 -1.44,-0.672 -0.784,0 -1.232,0.688 -0.448,0.672 -0.448,1.952 0,1.28 0.448,1.936 0.448,0.64 1.264,0.64 z m 10.12799,-7.152 q 1.216,0 2.08,0.464 0.88,0.464 1.36,1.344 0.48,0.88 0.48,2.16 v 1.152 h -5.632 q 0.032,1.008 0.592,1.584 0.576,0.576 1.584,0.576 0.848,0 1.536,-0.16 0.688,-0.176 1.424,-0.528 v 1.84 q -0.64,0.32 -1.36,0.464 -0.704,0.16 -1.712,0.16 -1.312,0 -2.32,-0.48 -1.008,-0.496 -1.584,-1.488 -0.576,-0.992 -0.576,-2.496 0,-1.536 0.512,-2.544 0.528,-1.024 1.456,-1.536 0.928,-0.512 2.16,-0.512 z m 0.016,1.696 q -0.688,0 -1.152,0.448 -0.448,0.448 -0.528,1.392 h 3.344 q 0,-0.528 -0.192,-0.944 -0.176,-0.416 -0.544,-0.656 -0.368,-0.24 -0.928,-0.24 z m 11.75999,7.2 h -6.896 v -1.408 l 4.048,-5.504 h -3.808 v -1.824 h 6.512 v 1.552 l -3.936,5.36 h 4.08 z m 5.32802,-8.896 q 1.216,0 2.08,0.464 0.88,0.464 1.36,1.344 0.48,0.88 0.48,2.16 v 1.152 h -5.632 q 0.032,1.008 0.592,1.584 0.576,0.576 1.584,0.576 0.848,0 1.536,-0.16 0.688,-0.176 1.424,-0.528 v 1.84 q -0.64,0.32 -1.36,0.464 -0.704,0.16 -1.712,0.16 -1.312,0 -2.32,-0.48 -1.008,-0.496 -1.584,-1.488 -0.576,-0.992 -0.576,-2.496 0,-1.536 0.512,-2.544 0.528,-1.024 1.456,-1.536 0.928,-0.512 2.16,-0.512 z m 0.016,1.696 q -0.688,0 -1.152,0.448 -0.448,0.448 -0.528,1.392 h 3.344 q 0,-0.528 -0.192,-0.944 -0.176,-0.416 -0.544,-0.656 -0.368,-0.24 -0.928,-0.24 z m 10.79999,-1.696 q 1.408,0 2.256,0.768 0.848,0.752 0.848,2.432 v 5.696 h -2.384 v -5.104 q 0,-0.944 -0.336,-1.408 -0.336,-0.48 -1.072,-0.48 -1.088,0 -1.488,0.752 -0.4,0.736 -0.4,2.128 v 4.112 h -2.384 v -8.736 h 1.824 l 0.32,1.12 h 0.128 q 0.288,-0.448 0.704,-0.72 0.416,-0.288 0.928,-0.416 0.512,-0.144 1.056,-0.144 z m 9.23199,7.152 q 0.4,0 0.768,-0.08 0.368,-0.08 0.736,-0.192 v 1.776 q -0.384,0.16 -0.96,0.272 -0.56,0.128 -1.232,0.128 -0.784,0 -1.408,-0.256 -0.608,-0.256 -0.976,-0.88 -0.352,-0.64 -0.352,-1.76 v -4.208 h -1.136 v -1.008 l 1.312,-0.8 0.688,-1.84 h 1.52 v 1.856 h 2.448 v 1.792 h -2.448 v 4.208 q 0,0.496 0.288,0.752 0.288,0.24 0.752,0.24 z m 8.144,-7.152 q 0.176,0 0.416,0.016 0.24,0.016 0.384,0.048 l -0.176,2.24 q -0.112,-0.032 -0.336,-0.048 -0.208,-0.032 -0.368,-0.032 -0.464,0 -0.896,0.128 -0.432,0.112 -0.784,0.368 -0.336,0.256 -0.544,0.688 -0.192,0.416 -0.192,1.04 v 4.448 h -2.384 v -8.736 h 1.808 l 0.352,1.472 h 0.112 q 0.256,-0.448 0.64,-0.816 0.384,-0.368 0.88,-0.592 0.512,-0.224 1.088,-0.224 z m 5.648,-0.016 q 1.76,0 2.688,0.768 0.944,0.752 0.944,2.32 v 5.824 h -1.664 l -0.464,-1.184 h -0.064 q -0.368,0.464 -0.768,0.768 -0.384,0.304 -0.896,0.432 -0.496,0.144 -1.232,0.144 -0.768,0 -1.392,-0.288 -0.608,-0.304 -0.96,-0.912 -0.352,-0.624 -0.352,-1.568 0,-1.392 0.976,-2.048 0.976,-0.672 2.928,-0.736 l 1.52,-0.048 v -0.384 q 0,-0.688 -0.368,-1.008 -0.352,-0.32 -0.992,-0.32 -0.64,0 -1.248,0.192 -0.608,0.176 -1.216,0.448 l -0.784,-1.616 q 0.704,-0.368 1.552,-0.576 0.864,-0.208 1.792,-0.208 z m 0.336,4.896 q -1.152,0.032 -1.6,0.416 -0.448,0.384 -0.448,1.008 0,0.544 0.32,0.784 0.32,0.224 0.832,0.224 0.768,0 1.296,-0.448 0.528,-0.464 0.528,-1.296 v -0.72 z m 8.128,4.016 h -2.384 v -12.16 h 2.384 z"
     id="text22"
     style="font-weight:bold;font-size:16px;font-family:'Noto Serif Thai';-inkscape-font-specification:'Noto Serif Thai Bold';text-align:center;text-anchor:middle;fill:#4d4d4d;stroke-width:15.1181;paint-order:markers fill stroke"
     aria-label="dezentral" /><path
     d="m 100.03357,170.73976 q -0.06399,-0.272 -0.191995,-0.8 -0.112,-0.544 -0.256,-1.152 -0.144,-0.624 -0.272,-1.136 -0.128,-0.528 -0.176,-0.768 h -0.064 q -0.048,0.24 -0.176,0.768 -0.112,0.512 -0.256,1.136 -0.144,0.608 -0.272,1.152 -0.128,0.544 -0.192,0.832 l -0.704,3.024 h -2.56 l -2.48,-8.736 h 2.368 l 1.008,3.872 q 0.112,0.4 0.192,0.96 0.096,0.56 0.176,1.088 0.08,0.512 0.112,0.816 h 0.064 q 0.016,-0.224 0.064,-0.592 0.048,-0.384 0.112,-0.784 0.08,-0.4 0.128,-0.72 0.064,-0.336 0.096,-0.448 l 1.072,-4.192 h 2.623995 l 1.024,4.192 q 0.064,0.224 0.144,0.72 0.096,0.496 0.16,1.008 0.08,0.512 0.08,0.816 h 0.064 q 0.032,-0.272 0.112,-0.784 0.08,-0.528 0.176,-1.104 0.112,-0.576 0.224,-0.976 l 1.04,-3.872 h 2.336 l -2.512,8.736 h -2.592 z m 10.78402,-5.84 q 1.216,0 2.08,0.464 0.88,0.464 1.36,1.344 0.48,0.88 0.48,2.16 v 1.152 h -5.632 q 0.032,1.008 0.592,1.584 0.576,0.576 1.584,0.576 0.848,0 1.536,-0.16 0.688,-0.176 1.424,-0.528 v 1.84 q -0.64,0.32 -1.36,0.464 -0.704,0.16 -1.712,0.16 -1.312,0 -2.32,-0.48 -1.008,-0.496 -1.584,-1.488 -0.576,-0.992 -0.576,-2.496 0,-1.536 0.512,-2.544 0.528,-1.024 1.456,-1.536 0.928,-0.512 2.16,-0.512 z m 0.016,1.696 q -0.688,0 -1.152,0.448 -0.448,0.448 -0.528,1.392 h 3.344 q 0,-0.528 -0.192,-0.944 -0.176,-0.416 -0.544,-0.656 -0.368,-0.24 -0.928,-0.24 z m 10.71999,-1.696 q 0.176,0 0.416,0.016 0.24,0.016 0.384,0.048 l -0.176,2.24 q -0.112,-0.032 -0.336,-0.048 -0.208,-0.032 -0.368,-0.032 -0.464,0 -0.896,0.128 -0.432,0.112 -0.784,0.368 -0.336,0.256 -0.544,0.688 -0.192,0.416 -0.192,1.04 v 4.448 h -2.384 v -8.736 h 1.808 l 0.352,1.472 h 0.112 q 0.256,-0.448 0.64,-0.816 0.384,-0.368 0.88,-0.592 0.512,-0.224 1.088,-0.224 z m 4.76801,-0.432 q 0,0.496 -0.032,0.976 -0.032,0.48 -0.064,0.752 h 0.096 q 0.352,-0.544 0.944,-0.912 0.592,-0.384 1.536,-0.384 1.472,0 2.384,1.152 0.912,1.136 0.912,3.36 0,1.488 -0.432,2.512 -0.416,1.008 -1.168,1.52 -0.752,0.512 -1.76,0.512 -0.96,0 -1.52,-0.336 -0.544,-0.352 -0.896,-0.784 h -0.16 l -0.4,0.96 h -1.824 v -12.16 h 2.384 z m 1.712,2.336 q -0.624,0 -0.992,0.256 -0.368,0.256 -0.544,0.784 -0.16,0.512 -0.176,1.296 v 0.256 q 0,1.264 0.368,1.952 0.384,0.672 1.376,0.672 0.736,0 1.168,-0.672 0.432,-0.688 0.432,-1.968 0,-1.28 -0.448,-1.92 -0.432,-0.656 -1.184,-0.656 z m 9.63199,-1.904 q 1.216,0 2.08,0.464 0.88,0.464 1.36,1.344 0.48,0.88 0.48,2.16 v 1.152 h -5.632 q 0.032,1.008 0.592,1.584 0.576,0.576 1.584,0.576 0.848,0 1.536,-0.16 0.688,-0.176 1.424,-0.528 v 1.84 q -0.64,0.32 -1.36,0.464 -0.704,0.16 -1.712,0.16 -1.312,0 -2.32,-0.48 -1.008,-0.496 -1.584,-1.488 -0.576,-0.992 -0.576,-2.496 0,-1.536 0.512,-2.544 0.528,-1.024 1.456,-1.536 0.928,-0.512 2.16,-0.512 z m 0.016,1.696 q -0.688,0 -1.152,0.448 -0.448,0.448 -0.528,1.392 h 3.344 q 0,-0.528 -0.192,-0.944 -0.176,-0.416 -0.544,-0.656 -0.368,-0.24 -0.928,-0.24 z m 10.67199,0.256 h -2.064 v 6.944 h -2.384 v -6.944 h -1.312 v -1.152 l 1.312,-0.64 v -0.64 q 0,-1.12 0.368,-1.728 0.384,-0.624 1.072,-0.88 0.704,-0.256 1.648,-0.256 0.704,0 1.264,0.112 0.576,0.112 0.928,0.256 l -0.608,1.744 q -0.272,-0.08 -0.592,-0.144 -0.32,-0.08 -0.736,-0.08 -0.496,0 -0.736,0.304 -0.224,0.304 -0.224,0.768 v 0.544 h 2.064 z m 6.23999,-1.952 q 0.176,0 0.416,0.016 0.24,0.016 0.384,0.048 l -0.176,2.24 q -0.112,-0.032 -0.336,-0.048 -0.208,-0.032 -0.368,-0.032 -0.464,0 -0.896,0.128 -0.432,0.112 -0.784,0.368 -0.336,0.256 -0.544,0.688 -0.192,0.416 -0.192,1.04 v 4.448 h -2.384 v -8.736 h 1.808 l 0.352,1.472 h 0.112 q 0.256,-0.448 0.64,-0.816 0.384,-0.368 0.88,-0.592 0.512,-0.224 1.088,-0.224 z m 5.664,0 q 1.216,0 2.08,0.464 0.88,0.464 1.36,1.344 0.48,0.88 0.48,2.16 v 1.152 h -5.632 q 0.032,1.008 0.592,1.584 0.576,0.576 1.584,0.576 0.848,0 1.536,-0.16 0.688,-0.176 1.424,-0.528 v 1.84 q -0.64,0.32 -1.36,0.464 -0.704,0.16 -1.712,0.16 -1.312,0 -2.32,-0.48 -1.008,-0.496 -1.584,-1.488 -0.576,-0.992 -0.576,-2.496 0,-1.536 0.512,-2.544 0.528,-1.024 1.456,-1.536 0.928,-0.512 2.16,-0.512 z m 0.016,1.696 q -0.688,0 -1.152,0.448 -0.448,0.448 -0.528,1.392 h 3.344 q 0,-0.528 -0.192,-0.944 -0.176,-0.416 -0.544,-0.656 -0.368,-0.24 -0.928,-0.24 z m 8.22399,-1.536 v 8.736 h -2.384 v -8.736 z m -1.184,-3.424 q 0.528,0 0.912,0.256 0.384,0.24 0.384,0.912 0,0.656 -0.384,0.912 -0.384,0.256 -0.912,0.256 -0.544,0 -0.928,-0.256 -0.368,-0.256 -0.368,-0.912 0,-0.672 0.368,-0.912 0.384,-0.256 0.928,-0.256 z"
     id="text23"
     style="font-weight:bold;font-size:16px;font-family:'Noto Serif Thai';-inkscape-font-specification:'Noto Serif Thai Bold';text-align:center;text-anchor:middle;fill:#4d4d4d;stroke-width:15.1181;paint-order:markers fill stroke"
     aria-label="werbefrei" /><path
     d="m 94.737331,205.71848 q 0,0.496 -0.048,0.992 -0.032,0.48 -0.08,0.976 h 0.032 q 0.16,-0.224 0.32,-0.448 0.176,-0.224 0.352,-0.448 0.176,-0.224 0.368,-0.432 l 2.448,-2.656 h 2.687999 l -3.471999,3.792 3.679999,4.944 h -2.751999 l -2.512,-3.536 -1.024,0.816 v 2.72 h -2.384 v -12.16 h 2.384 z m 15.472009,2.336 q 0,1.088 -0.304,1.936 -0.288,0.848 -0.848,1.44 -0.544,0.576 -1.328,0.88 -0.784,0.288 -1.776,0.288 -0.912,0 -1.696,-0.288 -0.768,-0.304 -1.328,-0.88 -0.56,-0.592 -0.88,-1.44 -0.304,-0.848 -0.304,-1.936 0,-1.456 0.512,-2.448 0.512,-1.008 1.472,-1.536 0.96,-0.528 2.272,-0.528 1.232,0 2.176,0.528 0.944,0.528 1.488,1.536 0.544,0.992 0.544,2.448 z m -6.032,0 q 0,0.864 0.176,1.456 0.192,0.576 0.592,0.88 0.4,0.288 1.04,0.288 0.64,0 1.024,-0.288 0.4,-0.304 0.576,-0.88 0.192,-0.592 0.192,-1.456 0,-0.864 -0.192,-1.44 -0.176,-0.576 -0.576,-0.864 -0.4,-0.288 -1.04,-0.288 -0.944,0 -1.376,0.656 -0.416,0.64 -0.416,1.936 z m 18.256,-4.512 q 1.488,0 2.24,0.768 0.768,0.752 0.768,2.432 v 5.696 h -2.384 v -5.104 q 0,-0.944 -0.32,-1.408 -0.32,-0.48 -0.992,-0.48 -0.944,0 -1.344,0.672 -0.4,0.672 -0.4,1.936 v 4.384 h -2.384 v -5.104 q 0,-0.624 -0.144,-1.04 -0.144,-0.416 -0.432,-0.624 -0.288,-0.224 -0.736,-0.224 -0.656,0 -1.04,0.336 -0.384,0.336 -0.544,0.976 -0.16,0.64 -0.16,1.568 v 4.112 h -2.384 v -8.736 h 1.824 l 0.32,1.12 h 0.128 q 0.272,-0.448 0.672,-0.72 0.4,-0.288 0.88,-0.416 0.496,-0.144 0.992,-0.144 0.96,0 1.632,0.32 0.672,0.304 1.024,0.96 h 0.208 q 0.4,-0.672 1.104,-0.976 0.72,-0.304 1.472,-0.304 z m 15.712,0 q 1.488,0 2.24,0.768 0.768,0.752 0.768,2.432 v 5.696 h -2.384 v -5.104 q 0,-0.944 -0.32,-1.408 -0.32,-0.48 -0.992,-0.48 -0.944,0 -1.344,0.672 -0.4,0.672 -0.4,1.936 v 4.384 h -2.384 v -5.104 q 0,-0.624 -0.144,-1.04 -0.144,-0.416 -0.432,-0.624 -0.288,-0.224 -0.736,-0.224 -0.656,0 -1.04,0.336 -0.384,0.336 -0.544,0.976 -0.16,0.64 -0.16,1.568 v 4.112 h -2.384 v -8.736 h 1.824 l 0.32,1.12 h 0.128 q 0.272,-0.448 0.672,-0.72 0.4,-0.288 0.88,-0.416 0.496,-0.144 0.992,-0.144 0.96,0 1.632,0.32 0.672,0.304 1.024,0.96 h 0.208 q 0.4,-0.672 1.104,-0.976 0.72,-0.304 1.472,-0.304 z m 9.05601,0 q 1.216,0 2.08,0.464 0.88,0.464 1.36,1.344 0.48,0.88 0.48,2.16 v 1.152 h -5.632 q 0.032,1.008 0.592,1.584 0.576,0.576 1.584,0.576 0.848,0 1.536,-0.16 0.688,-0.176 1.424,-0.528 v 1.84 q -0.64,0.32 -1.36,0.464 -0.704,0.16 -1.712,0.16 -1.312,0 -2.32,-0.48 -1.008,-0.496 -1.584,-1.488 -0.576,-0.992 -0.576,-2.496 0,-1.536 0.512,-2.544 0.528,-1.024 1.456,-1.536 0.928,-0.512 2.16,-0.512 z m 0.016,1.696 q -0.688,0 -1.152,0.448 -0.448,0.448 -0.528,1.392 h 3.344 q 0,-0.528 -0.192,-0.944 -0.176,-0.416 -0.544,-0.656 -0.368,-0.24 -0.928,-0.24 z m 10.71999,-1.696 q 0.176,0 0.416,0.016 0.24,0.016 0.384,0.048 l -0.176,2.24 q -0.112,-0.032 -0.336,-0.048 -0.208,-0.032 -0.368,-0.032 -0.464,0 -0.896,0.128 -0.432,0.112 -0.784,0.368 -0.336,0.256 -0.544,0.688 -0.192,0.416 -0.192,1.04 v 4.448 h -2.384 v -8.736 h 1.808 l 0.352,1.472 h 0.112 q 0.256,-0.448 0.64,-0.816 0.384,-0.368 0.88,-0.592 0.512,-0.224 1.088,-0.224 z m 8.46401,8.896 h -6.896 v -1.408 l 4.048,-5.504 h -3.808 v -1.824 h 6.512 v 1.552 l -3.936,5.36 h 4.08 z m 4.11201,-8.736 v 8.736 h -2.384 v -8.736 z m -1.184,-3.424 q 0.528,0 0.912,0.256 0.384,0.24 0.384,0.912 0,0.656 -0.384,0.912 -0.384,0.256 -0.912,0.256 -0.544,0 -0.928,-0.256 -0.368,-0.256 -0.368,-0.912 0,-0.672 0.368,-0.912 0.384,-0.256 0.928,-0.256 z m 7.28001,3.264 q 1.216,0 2.08,0.464 0.88,0.464 1.36,1.344 0.48,0.88 0.48,2.16 v 1.152 h -5.632 q 0.032,1.008 0.592,1.584 0.576,0.576 1.584,0.576 0.848,0 1.536,-0.16 0.688,-0.176 1.424,-0.528 v 1.84 q -0.64,0.32 -1.36,0.464 -0.704,0.16 -1.712,0.16 -1.312,0 -2.32,-0.48 -1.008,-0.496 -1.584,-1.488 -0.576,-0.992 -0.576,-2.496 0,-1.536 0.512,-2.544 0.528,-1.024 1.456,-1.536 0.928,-0.512 2.16,-0.512 z m 0.016,1.696 q -0.688,0 -1.152,0.448 -0.448,0.448 -0.528,1.392 h 3.344 q 0,-0.528 -0.192,-0.944 -0.176,-0.416 -0.544,-0.656 -0.368,-0.24 -0.928,-0.24 z m 8.22399,7.2 h -2.384 v -12.16 h 2.384 z m 4.88001,0 h -2.384 v -12.16 h 2.384 z"
     id="text24"
     style="font-weight:bold;font-size:16px;font-family:'Noto Serif Thai';-inkscape-font-specification:'Noto Serif Thai Bold';text-align:center;text-anchor:middle;fill:#4d4d4d;stroke-width:15.1181;paint-order:markers fill stroke"
     aria-label="kommerziell" /><g
     id="g24"
     transform="matrix(0.24987764,0,0,0.24987764,38.077633,38.695933)"
     style="fill:#8d5fd3;fill-opacity:1;stroke-width:15.1255"><g
       inkscape:label="Hexagons"
       id="layer1"
       style="display:none;fill:#8d5fd3;fill-opacity:1;stroke-width:15.1255"
       transform="translate(6.6789703,-32.495842)"><circle
         style="fill:#8d5fd3;fill-opacity:1;fill-rule:nonzero;stroke:#d79611;stroke-width:166.381;stroke-miterlimit:4;stroke-dasharray:none;stroke-opacity:1"
         id="path830"
         cx="91.581032"
         cy="130.75584"
         r="87.760002" /><path
         sodipodi:type="star"
         style="display:inline;fill:#8d5fd3;fill-opacity:1;fill-rule:nonzero;stroke:#4b4b40;stroke-width:149.584;stroke-miterlimit:4;stroke-dasharray:none;stroke-opacity:1"
         id="path1669"
         sodipodi:sides="5"
         sodipodi:cx="103.97202"
         sodipodi:cy="134.41467"
         sodipodi:r1="98.801643"
         sodipodi:r2="79.932205"
         sodipodi:arg1="1.0471976"
         sodipodi:arg2="1.6755161"
         inkscape:flatsided="true"
         inkscape:rounded="0"
         inkscape:randomized="0"
         d="M 153.37284,219.97941 37.860816,207.8386 13.712232,94.22842 114.29961,36.154276 l 86.315,77.718384 z"
         inkscape:transform-center-x="-2.409305"
         inkscape:transform-center-y="-4.7910078"
         transform="matrix(0.75493711,0,0,0.75474706,13.251553,29.556024)" /></g><g
       id="layer4"
       inkscape:label="Linies_originals"
       style="display:none;fill:#8d5fd3;fill-opacity:1;stroke-width:15.1255"><path
         transform="translate(6.6789702,-32.495842)"
         sodipodi:nodetypes="cc"
         inkscape:connector-curvature="0"
         id="path1690"
         d="M 165.18127,119.35405 38.636939,183.48684"
         style="display:inline;fill:#8d5fd3;fill-opacity:1;stroke:#5496be;stroke-width:166.381;stroke-linecap:butt;stroke-linejoin:miter;stroke-miterlimit:4;stroke-dasharray:none;stroke-opacity:1" /><path
         transform="translate(6.6789702,-32.495842)"
         style="display:inline;fill:#8d5fd3;fill-opacity:1;stroke:#a730b8;stroke-width:166.381;stroke-linecap:butt;stroke-linejoin:miter;stroke-miterlimit:4;stroke-dasharray:none;stroke-opacity:1"
         d="M 25.096981,96.875251 125.21379,197.3795"
         id="path1684"
         inkscape:connector-curvature="0"
         sodipodi:nodetypes="cc" /><path
         transform="translate(6.6789702,-32.495842)"
         sodipodi:nodetypes="cc"
         inkscape:connector-curvature="0"
         id="path1686"
         d="M 38.636939,183.48684 103.30568,57.239007"
         style="display:inline;fill:#8d5fd3;fill-opacity:1;stroke:#ce3d1a;stroke-width:166.381;stroke-linecap:butt;stroke-linejoin:miter;stroke-miterlimit:4;stroke-dasharray:none;stroke-opacity:1" /><path
         transform="translate(6.6789702,-32.495842)"
         style="display:inline;fill:#8d5fd3;fill-opacity:1;stroke:#46ae3a;stroke-width:166.381;stroke-linecap:butt;stroke-linejoin:miter;stroke-miterlimit:4;stroke-dasharray:none;stroke-opacity:1"
         d="M 125.21379,197.3795 103.30568,57.239007"
         id="path1688"
         inkscape:connector-curvature="0"
         sodipodi:nodetypes="cc" /><path
         transform="translate(6.6789702,-32.495842)"
         sodipodi:nodetypes="cc"
         inkscape:connector-curvature="0"
         id="path1682"
         d="m 25.096981,106.16365 140.084289,22.4788"
         style="display:inline;fill:#8d5fd3;fill-opacity:1;stroke:#d79611;stroke-width:166.381;stroke-linecap:butt;stroke-linejoin:miter;stroke-miterlimit:4;stroke-dasharray:none;stroke-opacity:1" /></g><g
       id="layer2"
       inkscape:label="Linies"
       style="display:inline;fill:#8d5fd3;fill-opacity:1;stroke-width:15.1255"
       transform="translate(6.6789703,-32.495842)"><path
         style="color:#000000;font-style:normal;font-variant:normal;font-weight:normal;font-stretch:normal;font-size:medium;line-height:normal;font-family:sans-serif;font-variant-ligatures:normal;font-variant-position:normal;font-variant-caps:normal;font-variant-numeric:normal;font-variant-alternates:normal;font-feature-settings:normal;text-indent:0;text-align:start;text-decoration:none;text-decoration-line:none;text-decoration-style:solid;text-decoration-color:#000000;letter-spacing:normal;word-spacing:normal;text-transform:none;writing-mode:lr-tb;direction:ltr;text-orientation:mixed;dominant-baseline:auto;baseline-shift:baseline;text-anchor:start;white-space:normal;shape-padding:0;clip-rule:nonzero;display:inline;overflow:visible;visibility:visible;opacity:1;isolation:auto;mix-blend-mode:normal;color-interpolation:sRGB;color-interpolation-filters:linearRGB;solid-color:#000000;solid-opacity:1;vector-effect:none;fill:#8d5fd3;fill-opacity:1;fill-rule:nonzero;stroke:none;stroke-width:628.841;stroke-linecap:butt;stroke-linejoin:miter;stroke-miterlimit:4;stroke-dasharray:none;stroke-dashoffset:0;stroke-opacity:1;color-rendering:auto;image-rendering:auto;shape-rendering:auto;text-rendering:auto;enable-background:accumulate"
         d="m 181.13086,275.13672 a 68.892408,68.892408 0 0 1 -29.46484,29.32812 l 161.75781,162.38868 38.99805,-19.76368 z m 213.36328,214.1875 -38.99805,19.76367 81.96289,82.2832 a 68.892409,68.892409 0 0 1 29.47071,-29.33203 z"
         transform="matrix(0.26458333,0,0,0.26458333,-6.6789703,32.495842)"
         id="path9722" /><path
         style="color:#000000;font-style:normal;font-variant:normal;font-weight:normal;font-stretch:normal;font-size:medium;line-height:normal;font-family:sans-serif;font-variant-ligatures:normal;font-variant-position:normal;font-variant-caps:normal;font-variant-numeric:normal;font-variant-alternates:normal;font-feature-settings:normal;text-indent:0;text-align:start;text-decoration:none;text-decoration-line:none;text-decoration-style:solid;text-decoration-color:#000000;letter-spacing:normal;word-spacing:normal;text-transform:none;writing-mode:lr-tb;direction:ltr;text-orientation:mixed;dominant-baseline:auto;baseline-shift:baseline;text-anchor:start;white-space:normal;shape-padding:0;clip-rule:nonzero;display:inline;overflow:visible;visibility:visible;opacity:1;isolation:auto;mix-blend-mode:normal;color-interpolation:sRGB;color-interpolation-filters:linearRGB;solid-color:#000000;solid-opacity:1;vector-effect:none;fill:#8d5fd3;fill-opacity:1;fill-rule:nonzero;stroke:none;stroke-width:628.841;stroke-linecap:butt;stroke-linejoin:miter;stroke-miterlimit:4;stroke-dasharray:none;stroke-dashoffset:0;stroke-opacity:1;color-rendering:auto;image-rendering:auto;shape-rendering:auto;text-rendering:auto;enable-background:accumulate"
         d="m 581.64648,339.39062 -91.57617,46.41016 6.75196,43.18945 103.61523,-52.51367 A 68.892409,68.892409 0 0 1 581.64648,339.39062 Z M 436.9082,412.74219 220.38281,522.47656 a 68.892408,68.892408 0 0 1 18.79492,37.08985 L 443.66016,455.93359 Z"
         transform="matrix(0.26458333,0,0,0.26458333,-6.6789703,32.495842)"
         id="path9729" /><path
         style="color:#000000;font-style:normal;font-variant:normal;font-weight:normal;font-stretch:normal;font-size:medium;line-height:normal;font-family:sans-serif;font-variant-ligatures:normal;font-variant-position:normal;font-variant-caps:normal;font-variant-numeric:normal;font-variant-alternates:normal;font-feature-settings:normal;text-indent:0;text-align:start;text-decoration:none;text-decoration-line:none;text-decoration-style:solid;text-decoration-color:#000000;letter-spacing:normal;word-spacing:normal;text-transform:none;writing-mode:lr-tb;direction:ltr;text-orientation:mixed;dominant-baseline:auto;baseline-shift:baseline;text-anchor:start;white-space:normal;shape-padding:0;clip-rule:nonzero;display:inline;overflow:visible;visibility:visible;opacity:1;isolation:auto;mix-blend-mode:normal;color-interpolation:sRGB;color-interpolation-filters:linearRGB;solid-color:#000000;solid-opacity:1;vector-effect:none;fill:#8d5fd3;fill-opacity:1;fill-rule:nonzero;stroke:none;stroke-width:628.841;stroke-linecap:butt;stroke-linejoin:miter;stroke-miterlimit:4;stroke-dasharray:none;stroke-dashoffset:0;stroke-opacity:1;color-rendering:auto;image-rendering:auto;shape-rendering:auto;text-rendering:auto;enable-background:accumulate"
         d="M 367.27539,142.4375 262.79492,346.4082 293.64258,377.375 404.26562,161.41797 A 68.892408,68.892408 0 0 1 367.27539,142.4375 Z m -131.6543,257.02148 -52.92187,103.31446 a 68.892409,68.892409 0 0 1 36.98633,18.97851 l 46.78125,-91.32812 z"
         transform="matrix(0.26458333,0,0,0.26458333,-6.6789703,32.495842)"
         id="path9713" /><path
         style="color:#000000;font-style:normal;font-variant:normal;font-weight:normal;font-stretch:normal;font-size:medium;line-height:normal;font-family:sans-serif;font-variant-ligatures:normal;font-variant-position:normal;font-variant-caps:normal;font-variant-numeric:normal;font-variant-alternates:normal;font-feature-settings:normal;text-indent:0;text-align:start;text-decoration:none;text-decoration-line:none;text-decoration-style:solid;text-decoration-color:#000000;letter-spacing:normal;word-spacing:normal;text-transform:none;writing-mode:lr-tb;direction:ltr;text-orientation:mixed;dominant-baseline:auto;baseline-shift:baseline;text-anchor:start;white-space:normal;shape-padding:0;clip-rule:nonzero;display:inline;overflow:visible;visibility:visible;opacity:1;isolation:auto;mix-blend-mode:normal;color-interpolation:sRGB;color-interpolation-filters:linearRGB;solid-color:#000000;solid-opacity:1;vector-effect:none;fill:#8d5fd3;fill-opacity:1;fill-rule:nonzero;stroke:none;stroke-width:628.841;stroke-linecap:butt;stroke-linejoin:miter;stroke-miterlimit:4;stroke-dasharray:none;stroke-dashoffset:0;stroke-opacity:1;color-rendering:auto;image-rendering:auto;shape-rendering:auto;text-rendering:auto;enable-background:accumulate"
         d="m 150.76758,304.91797 a 68.892408,68.892408 0 0 1 -34.41602,7.19531 68.892408,68.892408 0 0 1 -6.65039,-0.69531 l 30.90235,197.66211 a 68.892409,68.892409 0 0 1 34.41601,-7.19531 68.892409,68.892409 0 0 1 6.64649,0.69531 z"
         transform="matrix(0.26458333,0,0,0.26458333,-6.6789703,32.495842)"
         id="path1015" /><path
         style="color:#000000;font-style:normal;font-variant:normal;font-weight:normal;font-stretch:normal;font-size:medium;line-height:normal;font-family:sans-serif;font-variant-ligatures:normal;font-variant-position:normal;font-variant-caps:normal;font-variant-numeric:normal;font-variant-alternates:normal;font-feature-settings:normal;text-indent:0;text-align:start;text-decoration:none;text-decoration-line:none;text-decoration-style:solid;text-decoration-color:#000000;letter-spacing:normal;word-spacing:normal;text-transform:none;writing-mode:lr-tb;direction:ltr;text-orientation:mixed;dominant-baseline:auto;baseline-shift:baseline;text-anchor:start;white-space:normal;shape-padding:0;clip-rule:nonzero;display:inline;overflow:visible;visibility:visible;opacity:1;isolation:auto;mix-blend-mode:normal;color-interpolation:sRGB;color-interpolation-filters:linearRGB;solid-color:#000000;solid-opacity:1;vector-effect:none;fill:#8d5fd3;fill-opacity:1;fill-rule:nonzero;stroke:none;stroke-width:628.841;stroke-linecap:butt;stroke-linejoin:miter;stroke-miterlimit:4;stroke-dasharray:none;stroke-dashoffset:0;stroke-opacity:1;color-rendering:auto;image-rendering:auto;shape-rendering:auto;text-rendering:auto;enable-background:accumulate"
         d="m 239.3418,560.54492 a 68.892408,68.892408 0 0 1 0.7207,13.87696 68.892408,68.892408 0 0 1 -7.26758,27.17968 l 197.62891,31.71289 a 68.892409,68.892409 0 0 1 -0.72266,-13.8789 68.892409,68.892409 0 0 1 7.26953,-27.17774 z"
         transform="matrix(0.26458333,0,0,0.26458333,-6.6789703,32.495842)"
         id="path1674" /><path
         style="color:#000000;font-style:normal;font-variant:normal;font-weight:normal;font-stretch:normal;font-size:medium;line-height:normal;font-family:sans-serif;font-variant-ligatures:normal;font-variant-position:normal;font-variant-caps:normal;font-variant-numeric:normal;font-variant-alternates:normal;font-feature-settings:normal;text-indent:0;text-align:start;text-decoration:none;text-decoration-line:none;text-decoration-style:solid;text-decoration-color:#000000;letter-spacing:normal;word-spacing:normal;text-transform:none;writing-mode:lr-tb;direction:ltr;text-orientation:mixed;dominant-baseline:auto;baseline-shift:baseline;text-anchor:start;white-space:normal;shape-padding:0;clip-rule:nonzero;display:inline;overflow:visible;visibility:visible;opacity:1;isolation:auto;mix-blend-mode:normal;color-interpolation:sRGB;color-interpolation-filters:linearRGB;solid-color:#000000;solid-opacity:1;vector-effect:none;fill:#8d5fd3;fill-opacity:1;fill-rule:nonzero;stroke:none;stroke-width:628.841;stroke-linecap:butt;stroke-linejoin:miter;stroke-miterlimit:4;stroke-dasharray:none;stroke-dashoffset:0;stroke-opacity:1;color-rendering:auto;image-rendering:auto;shape-rendering:auto;text-rendering:auto;enable-background:accumulate"
         d="m 601.13281,377.19922 -91.21875,178.08203 a 68.892408,68.892408 0 0 1 36.99414,18.98242 L 638.125,396.18359 a 68.892409,68.892409 0 0 1 -36.99219,-18.98437 z"
         transform="matrix(0.26458333,0,0,0.26458333,-6.6789703,32.495842)"
         id="path1676" /><path
         style="color:#000000;font-style:normal;font-variant:normal;font-weight:normal;font-stretch:normal;font-size:medium;line-height:normal;font-family:sans-serif;font-variant-ligatures:normal;font-variant-position:normal;font-variant-caps:normal;font-variant-numeric:normal;font-variant-alternates:normal;font-feature-settings:normal;text-indent:0;text-align:start;text-decoration:none;text-decoration-line:none;text-decoration-style:solid;text-decoration-color:#000000;letter-spacing:normal;word-spacing:normal;text-transform:none;writing-mode:lr-tb;direction:ltr;text-orientation:mixed;dominant-baseline:auto;baseline-shift:baseline;text-anchor:start;white-space:normal;shape-padding:0;clip-rule:nonzero;display:inline;overflow:visible;visibility:visible;opacity:1;isolation:auto;mix-blend-mode:normal;color-interpolation:sRGB;color-interpolation-filters:linearRGB;solid-color:#000000;solid-opacity:1;vector-effect:none;fill:#8d5fd3;fill-opacity:1;fill-rule:nonzero;stroke:none;stroke-width:628.841;stroke-linecap:butt;stroke-linejoin:miter;stroke-miterlimit:4;stroke-dasharray:none;stroke-dashoffset:0;stroke-opacity:1;color-rendering:auto;image-rendering:auto;shape-rendering:auto;text-rendering:auto;enable-background:accumulate"
         d="m 476.72266,125.33008 a 68.892408,68.892408 0 0 1 -29.47071,29.33203 l 141.26563,141.81055 a 68.892409,68.892409 0 0 1 29.46875,-29.33204 z"
         transform="matrix(0.26458333,0,0,0.26458333,-6.6789703,32.495842)"
         id="path1678" /><path
         style="color:#000000;font-style:normal;font-variant:normal;font-weight:normal;font-stretch:normal;font-size:medium;line-height:normal;font-family:sans-serif;font-variant-ligatures:normal;font-variant-position:normal;font-variant-caps:normal;font-variant-numeric:normal;font-variant-alternates:normal;font-feature-settings:normal;text-indent:0;text-align:start;text-decoration:none;text-decoration-line:none;text-decoration-style:solid;text-decoration-color:#000000;letter-spacing:normal;word-spacing:normal;text-transform:none;writing-mode:lr-tb;direction:ltr;text-orientation:mixed;dominant-baseline:auto;baseline-shift:baseline;text-anchor:start;white-space:normal;shape-padding:0;clip-rule:nonzero;display:inline;overflow:visible;visibility:visible;opacity:1;isolation:auto;mix-blend-mode:normal;color-interpolation:sRGB;color-interpolation-filters:linearRGB;solid-color:#000000;solid-opacity:1;vector-effect:none;fill:#8d5fd3;fill-opacity:1;fill-rule:nonzero;stroke:none;stroke-width:628.841;stroke-linecap:butt;stroke-linejoin:miter;stroke-miterlimit:4;stroke-dasharray:none;stroke-dashoffset:0;stroke-opacity:1;color-rendering:auto;image-rendering:auto;shape-rendering:auto;text-rendering:auto;enable-background:accumulate"
         d="m 347.78711,104.63086 -178.57617,90.49805 a 68.892409,68.892409 0 0 1 18.79297,37.08593 l 178.57421,-90.50195 a 68.892408,68.892408 0 0 1 -18.79101,-37.08203 z"
         transform="matrix(0.26458333,0,0,0.26458333,-6.6789703,32.495842)"
         id="path1680" /><path
         style="color:#000000;font-style:normal;font-variant:normal;font-weight:normal;font-stretch:normal;font-size:medium;line-height:normal;font-family:sans-serif;font-variant-ligatures:normal;font-variant-position:normal;font-variant-caps:normal;font-variant-numeric:normal;font-variant-alternates:normal;font-feature-settings:normal;text-indent:0;text-align:start;text-decoration:none;text-decoration-line:none;text-decoration-style:solid;text-decoration-color:#000000;letter-spacing:normal;word-spacing:normal;text-transform:none;writing-mode:lr-tb;direction:ltr;text-orientation:mixed;dominant-baseline:auto;baseline-shift:baseline;text-anchor:start;white-space:normal;shape-padding:0;clip-rule:nonzero;display:inline;overflow:visible;visibility:visible;opacity:1;isolation:auto;mix-blend-mode:normal;color-interpolation:sRGB;color-interpolation-filters:linearRGB;solid-color:#000000;solid-opacity:1;vector-effect:none;fill:#8d5fd3;fill-opacity:1;fill-rule:nonzero;stroke:none;stroke-width:628.841;stroke-linecap:butt;stroke-linejoin:miter;stroke-miterlimit:4;stroke-dasharray:none;stroke-dashoffset:0;stroke-opacity:1;color-rendering:auto;image-rendering:auto;shape-rendering:auto;text-rendering:auto;enable-background:accumulate"
         d="m 446.92578,154.82617 a 68.892408,68.892408 0 0 1 -34.98242,7.48242 68.892408,68.892408 0 0 1 -6.0293,-0.63281 l 15.81836,101.29102 43.16211,6.92578 z m -16,167.02735 37.40039,239.48242 a 68.892409,68.892409 0 0 1 33.91406,-6.94336 68.892409,68.892409 0 0 1 7.20704,0.79101 L 474.08984,328.77734 Z"
         transform="matrix(0.26458333,0,0,0.26458333,-6.6789703,32.495842)"
         id="path9758" /><path
         style="color:#000000;font-style:normal;font-variant:normal;font-weight:normal;font-stretch:normal;font-size:medium;line-height:normal;font-family:sans-serif;font-variant-ligatures:normal;font-variant-position:normal;font-variant-caps:normal;font-variant-numeric:normal;font-variant-alternates:normal;font-feature-settings:normal;text-indent:0;text-align:start;text-decoration:none;text-decoration-line:none;text-decoration-style:solid;text-decoration-color:#000000;letter-spacing:normal;word-spacing:normal;text-transform:none;writing-mode:lr-tb;direction:ltr;text-orientation:mixed;dominant-baseline:auto;baseline-shift:baseline;text-anchor:start;white-space:normal;shape-padding:0;clip-rule:nonzero;display:inline;overflow:visible;visibility:visible;opacity:1;isolation:auto;mix-blend-mode:normal;color-interpolation:sRGB;color-interpolation-filters:linearRGB;solid-color:#000000;solid-opacity:1;vector-effect:none;fill:#8d5fd3;fill-opacity:1;fill-rule:nonzero;stroke:none;stroke-width:628.841;stroke-linecap:butt;stroke-linejoin:miter;stroke-miterlimit:4;stroke-dasharray:none;stroke-dashoffset:0;stroke-opacity:1;color-rendering:auto;image-rendering:auto;shape-rendering:auto;text-rendering:auto;enable-background:accumulate"
         d="m 188.13086,232.97461 a 68.892408,68.892408 0 0 1 0.75781,14.0957 68.892408,68.892408 0 0 1 -7.16015,26.98242 l 101.36914,16.28125 19.92382,-38.9082 z m 173.73633,27.90039 -19.92578,38.91211 239.51367,38.4668 a 68.892409,68.892409 0 0 1 -0.69531,-13.71875 68.892409,68.892409 0 0 1 7.34961,-27.32422 z"
         transform="matrix(0.26458333,0,0,0.26458333,-6.6789703,32.495842)"
         id="path9760" /></g><g
       id="layer3"
       inkscape:label="Nodes"
       style="display:inline;opacity:1;fill:#8d5fd3;fill-opacity:1;stroke-width:15.1255"
       transform="translate(6.6789703,-32.495842)"><circle
         style="fill:#8d5fd3;fill-opacity:1;stroke:none;stroke-width:4.00196;stroke-opacity:0.960784"
         id="path817"
         cx="106.26596"
         cy="51.535553"
         r="16.570711"
         transform="rotate(3.1178174)" /><circle
         id="path819"
         style="fill:#8d5fd3;fill-opacity:1;stroke:none;stroke-width:4.00196;stroke-opacity:0.960784"
         cx="171.42836"
         cy="110.19328"
         r="16.570711"
         transform="rotate(3.1178174)" /><circle
         id="path823"
         style="fill:#8d5fd3;fill-opacity:1;stroke:none;stroke-width:4.00196;stroke-opacity:0.960784"
         cx="135.76379"
         cy="190.27704"
         r="16.570711"
         transform="rotate(3.1178174)" /><circle
         style="fill:#8d5fd3;fill-opacity:1;stroke:none;stroke-width:4.00196;stroke-opacity:0.960784"
         id="path825"
         cx="48.559471"
         cy="181.1138"
         r="16.570711"
         transform="rotate(3.1178174)" /><circle
         id="path827"
         style="fill:#8d5fd3;fill-opacity:1;stroke:none;stroke-width:4.00196;stroke-opacity:0.960784"
         cx="30.328812"
         cy="95.366837"
         r="16.570711"
         transform="rotate(3.1178174)" /></g></g><path
     d="m 94.751734,81.287727 h -2.384 v -11.424 h 6.544 v 1.984 h -4.16 v 2.944 h 3.872 v 1.984 h -3.872 z m 12.975996,0 h -6.576 v -11.424 h 6.576 v 1.984 h -4.16 v 2.512 h 3.872 v 1.984 h -3.872 v 2.944 h 4.16 z m 11.85599,-5.824 q 0,1.92 -0.736,3.216 -0.736,1.296 -2.144,1.952 -1.392,0.656 -3.36,0.656 h -3.232 v -11.424 h 3.584 q 1.792,0 3.104,0.64 1.328,0.64 2.048,1.888 0.736,1.232 0.736,3.072 z m -2.512,0.064 q 0,-1.264 -0.368,-2.08 -0.368,-0.816 -1.104,-1.2 -0.72,-0.4 -1.776,-0.4 h -1.296 v 7.44 h 1.04 q 1.776,0 2.64,-0.944 0.864,-0.944 0.864,-2.816 z m 9.152,5.76 h -5.2 v -1.376 l 1.392,-0.64 v -7.392 l -1.392,-0.64 v -1.376 h 5.2 v 1.376 l -1.392,0.64 v 7.392 l 1.392,0.64 z m 10.912,-11.424 -3.888,11.424 h -2.64 l -3.872,-11.424 h 2.448 l 2.144,6.8 q 0.064,0.176 0.176,0.656 0.128,0.464 0.256,0.992 0.128,0.512 0.176,0.864 0.048,-0.352 0.16,-0.864 0.128,-0.528 0.256,-0.992 0.128,-0.48 0.176,-0.656 l 2.16,-6.8 z m 8.01599,11.424 h -6.576 v -11.424 h 6.576 v 1.984 h -4.16 v 2.512 h 3.872 v 1.984 h -3.872 v 2.944 h 4.16 z m 5.71199,-11.424 q 1.552,0 2.56,0.384 1.008,0.368 1.504,1.136 0.496,0.752 0.496,1.904 0,0.784 -0.304,1.376 -0.288,0.576 -0.784,0.992 -0.48,0.4 -1.04,0.656 l 3.36,4.976 h -2.688 l -2.72,-4.384 h -1.296 v 4.384 h -2.416 v -11.424 z m -0.176,1.984 h -0.736 v 3.088 h 0.784 q 1.2,0 1.712,-0.4 0.528,-0.4 0.528,-1.184 0,-0.544 -0.256,-0.864 -0.24,-0.336 -0.752,-0.48 -0.496,-0.16 -1.28,-0.16 z m 14.144,6.272 q 0,1.008 -0.496,1.76 -0.496,0.752 -1.44,1.168 -0.928,0.4 -2.272,0.4 -0.592,0 -1.168,-0.08 -0.56,-0.08 -1.088,-0.224 -0.512,-0.16 -0.976,-0.384 v -2.256 q 0.816,0.352 1.68,0.656 0.88,0.288 1.744,0.288 0.592,0 0.944,-0.16 0.368,-0.16 0.528,-0.432 0.176,-0.272 0.176,-0.624 0,-0.432 -0.304,-0.736 -0.288,-0.304 -0.784,-0.56 -0.496,-0.272 -1.136,-0.576 -0.4,-0.192 -0.864,-0.448 -0.464,-0.272 -0.896,-0.656 -0.416,-0.4 -0.688,-0.96 -0.272,-0.56 -0.272,-1.344 0,-1.024 0.464,-1.744 0.48,-0.736 1.344,-1.12 0.88,-0.384 2.064,-0.384 0.896,0 1.696,0.208 0.816,0.208 1.696,0.592 l -0.784,1.888 q -0.784,-0.32 -1.408,-0.496 -0.624,-0.176 -1.28,-0.176 -0.448,0 -0.768,0.144 -0.32,0.144 -0.496,0.4 -0.16,0.256 -0.16,0.608 0,0.4 0.24,0.688 0.24,0.272 0.72,0.528 0.48,0.256 1.2,0.608 0.88,0.416 1.488,0.864 0.624,0.448 0.96,1.056 0.336,0.608 0.336,1.504 z m 8.65601,3.168 h -6.576 v -11.424 h 6.576 v 1.984 h -4.16 v 2.512 h 3.872 v 1.984 h -3.872 v 2.944 h 4.16 z m 13.28,-3.168 q 0,1.008 -0.496,1.76 -0.496,0.752 -1.44,1.168 -0.928,0.4 -2.272,0.4 -0.592,0 -1.168,-0.08 -0.56,-0.08 -1.088,-0.224 -0.512,-0.16 -0.976,-0.384 v -2.256 q 0.816,0.352 1.68,0.656 0.88,0.288 1.744,0.288 0.592,0 0.944,-0.16 0.368,-0.16 0.528,-0.432 0.176,-0.272 0.176,-0.624 0,-0.432 -0.304,-0.736 -0.288,-0.304 -0.784,-0.56 -0.496,-0.272 -1.136,-0.576 -0.4,-0.192 -0.864,-0.448 -0.464,-0.272 -0.896,-0.656 -0.416,-0.4 -0.688,-0.96 -0.272,-0.56 -0.272,-1.344 0,-1.024 0.464,-1.744 0.48,-0.736 1.344,-1.12 0.88,-0.384 2.064,-0.384 0.896,0 1.696,0.208 0.816,0.208 1.696,0.592 l -0.784,1.888 q -0.784,-0.32 -1.408,-0.496 -0.624,-0.176 -1.28,-0.176 -0.448,0 -0.768,0.144 -0.32,0.144 -0.496,0.4 -0.16,0.256 -0.16,0.608 0,0.4 0.24,0.688 0.24,0.272 0.72,0.528 0.48,0.256 1.2,0.608 0.88,0.416 1.488,0.864 0.624,0.448 0.96,1.056 0.336,0.608 0.336,1.504 z m 8.656,3.168 h -6.576 v -11.424 h 6.576 v 1.984 h -4.16 v 2.512 h 3.872 v 1.984 h -3.872 v 2.944 h 4.16 z m 6.784,0 h -2.416 v -9.408 h -3.104 v -2.016 h 8.624 v 2.016 h -3.104 z m 9.58401,0 h -2.416 v -9.408 h -3.104 v -2.016 h 8.624 v 2.016 h -3.104 z m 9.13601,0 h -5.2 v -1.376 l 1.392,-0.64 v -7.392 l -1.392,-0.64 v -1.376 h 5.2 v 1.376 l -1.392,0.64 v 7.392 l 1.392,0.64 z m 12.08,0 h -3.072 l -4.976,-8.64 h -0.064 q 0.032,0.544 0.048,1.088 0.032,0.544 0.048,1.088 0.032,0.544 0.048,1.088 v 5.376 h -2.16 v -11.424 h 3.056 l 4.96,8.56 h 0.048 q -0.016,-0.528 -0.032,-1.056 -0.016,-0.528 -0.048,-1.04 -0.016,-0.528 -0.032,-1.056 v -5.408 h 2.176 z m 7.21599,-6.416 h 4.528 v 5.92 q -0.896,0.304 -1.872,0.48 -0.96,0.176 -2.192,0.176 -1.696,0 -2.896,-0.672 -1.184,-0.672 -1.808,-1.984 -0.608,-1.312 -0.608,-3.232 0,-1.792 0.688,-3.104 0.704,-1.312 2.032,-2.032 1.328,-0.72 3.248,-0.72 0.912,0 1.792,0.192 0.88,0.192 1.6,0.512 l -0.8,1.936 q -0.528,-0.272 -1.2,-0.448 -0.672,-0.176 -1.408,-0.176 -1.056,0 -1.84,0.48 -0.768,0.48 -1.2,1.36 -0.416,0.864 -0.416,2.048 0,1.12 0.304,1.984 0.304,0.864 0.96,1.36 0.656,0.48 1.712,0.48 0.512,0 0.864,-0.048 0.368,-0.048 0.672,-0.112 v -2.384 h -2.16 z m 13.98402,3.248 q 0,1.008 -0.496,1.76 -0.496,0.752 -1.44,1.168 -0.928,0.4 -2.272,0.4 -0.592,0 -1.168,-0.08 -0.56,-0.08 -1.088,-0.224 -0.512,-0.16 -0.976,-0.384 v -2.256 q 0.816,0.352 1.68,0.656 0.88,0.288 1.744,0.288 0.592,0 0.944,-0.16 0.368,-0.16 0.528,-0.432 0.176,-0.272 0.176,-0.624 0,-0.432 -0.304,-0.736 -0.288,-0.304 -0.784,-0.56 -0.496,-0.272 -1.136,-0.576 -0.4,-0.192 -0.864,-0.448 -0.464,-0.272 -0.896,-0.656 -0.416,-0.4 -0.688,-0.96 -0.272,-0.56 -0.272,-1.344 0,-1.024 0.464,-1.744 0.48,-0.736 1.344,-1.12 0.88,-0.384 2.064,-0.384 0.896,0 1.696,0.208 0.816,0.208 1.696,0.592 l -0.784,1.888 q -0.784,-0.32 -1.408,-0.496 -0.624,-0.176 -1.28,-0.176 -0.448,0 -0.768,0.144 -0.32,0.144 -0.496,0.4 -0.16,0.256 -0.16,0.608 0,0.4 0.24,0.688 0.24,0.272 0.72,0.528 0.48,0.256 1.2,0.608 0.88,0.416 1.488,0.864 0.624,0.448 0.96,1.056 0.336,0.608 0.336,1.504 z"
     id="text25"
     style="font-weight:bold;font-size:16px;font-family:'Noto Serif Thai';-inkscape-font-specification:'Noto Serif Thai Bold';text-align:center;text-anchor:middle;fill:#4d4d4d;stroke-width:15.1181;paint-order:markers fill stroke"
     aria-label="FEDIVERSE SETTINGS" /></svg>
