<?xml version="1.0" encoding="UTF-8" standalone="no"?>
<svg
   id="ASTRO_1"
   data-name="ASTRO 1"
   viewBox="0 0 48 48"
   version="1.1"
   sodipodi:docname="logo.svg"
   width="48"
   height="48"
   inkscape:version="1.4 (e7c3feb100, 2024-10-09)"
   xmlns:inkscape="http://www.inkscape.org/namespaces/inkscape"
   xmlns:sodipodi="http://sodipodi.sourceforge.net/DTD/sodipodi-0.dtd"
   xmlns="http://www.w3.org/2000/svg"
   xmlns:svg="http://www.w3.org/2000/svg">
  <sodipodi:namedview
     id="namedview13"
     pagecolor="#505050"
     bordercolor="#ffffff"
     borderopacity="1"
     inkscape:showpageshadow="0"
     inkscape:pageopacity="0"
     inkscape:pagecheckerboard="1"
     inkscape:deskcolor="#505050"
     inkscape:zoom="7.9929255"
     inkscape:cx="54.047795"
     inkscape:cy="29.088223"
     inkscape:window-width="1920"
     inkscape:window-height="1014"
     inkscape:window-x="0"
     inkscape:window-y="0"
     inkscape:window-maximized="1"
     inkscape:current-layer="ASTRO_1" />
  <defs
     id="defs1">
    <style
       id="style1">
      .cls-1 {
        fill: #fff;
      }

      .cls-2 {
        opacity: .2;
      }

      .cls-3 {
        fill: #999;
      }
    </style>
  </defs>
  <g
     id="g14"
     transform="matrix(-0.07007068,0,0,0.07007068,50.31025,-24.939423)">
    <g
       id="_2te"
       data-name="2te">
      <path
         class="cls-1"
         d="m 674.62,795.05 c 4.18,-3.64 6.29,-8.85 7.86,-12.74 0.72,-1.79 1.47,-3.64 2.09,-4.51 0.37,-0.46 1.84,-1.57 2.82,-2.31 2.73,-2.05 6.13,-4.61 8.44,-8.37 5.34,-8.65 5.57,-18.75 0.59,-26.36 -3.02,-4.61 -7.55,-7.72 -12.9,-9.04 4.05,-15.18 0.17,-23.66 -4.25,-28.24 -7.97,-8.26 -22.55,-9.15 -41.06,-2.48 -5.54,1.99 -11.54,5.29 -17.35,8.47 -8.02,4.4 -16.32,8.95 -22.56,9.7 -7.75,0.93 -21.94,0.5 -41.04,-1.22 -8.68,-0.78 -13.72,-1.47 -16.22,-1.92 -5.09,-9.69 -12.61,-17.73 -19.91,-25.53 -0.47,-0.5 -0.94,-1.01 -1.41,-1.51 15.82,-19.91 24.41,-49.06 21.15,-73.09 -2.33,-17.13 -10.26,-30.9 -23.02,-40.06 1.71,-43.63 -15.02,-86.05 -47.36,-119.85 -31.41,-32.83 -74.96,-54.24 -119.47,-58.73 -39.82,-4.02 -73.24,0.93 -102.17,15.14 -27.33,13.42 -51.47,35.12 -75.94,68.27 -33.35,45.18 -46.33,88.1 -40.18,133.81 C 116,604.11 89,590.62 73.55,599.88 c -9.94,5.96 -12.46,18.65 -6.56,33.13 0.23,0.57 0.48,1.11 0.74,1.63 -9.56,1.01 -18.15,5.64 -22.74,12.91 -4.65,7.36 -4.54,15.94 0.11,24.25 -6.48,5.85 -8.39,12.9 -6.38,22.58 3.02,14.53 19.54,20.31 32.81,24.95 4.95,1.73 9.63,3.37 12.55,5.08 7.23,4.25 16.97,14.43 26.4,24.27 6.9,7.21 13.42,14.02 19.33,18.97 37.21,31.15 81.14,50.19 124.2,53.93 0.43,1.17 0.89,2.32 1.34,3.45 1.01,2.54 1.97,4.93 2.31,6.84 0.26,1.5 0.5,2.88 0.72,4.15 2.3,13.37 3.08,16.69 11.32,30.75 17.74,30.27 38.79,51.22 70.38,70.05 9.85,5.87 19.1,9.39 28.04,12.8 6.07,2.31 11.8,4.49 17.79,7.38 5.08,2.45 10.23,5.58 15.68,8.89 6.26,3.8 12.73,7.73 19.41,10.78 27.48,12.52 68.44,24.14 109.71,10.06 10.87,11.17 33.23,32.26 57.19,32.26 6.21,0 12.53,-1.42 18.77,-4.79 24.47,-13.21 19.33,-51.68 9.24,-76.96 12.63,-12.84 24.17,-25.97 30.45,-42.03 0.27,0.19 0.55,0.39 0.83,0.59 2.39,1.7 5.09,3.62 8.35,4.98 12.32,5.15 25.55,5.53 35.37,1.04 7.61,-3.48 13.09,-9.74 15.83,-18.09 8.85,-26.95 -14.56,-67.96 -32.1,-88.7 z"
         id="path1" />
    </g>
    <g
       id="Ebene_4"
       data-name="Ebene 4">
      <path
         class="cls-3"
         d="m 174.03,781.83 c 0,0 43.92,-30.61 14.64,-78.52 l 47.91,29.28 22.62,18.63 2.66,58.56 -55.9,-10.65 -30.61,-11.98 -1.33,-4.46"
         id="path2" />
      <path
         class="cls-2"
         d="m 277.87,828.17 c 1.3,0.25 15.94,-10.4 15.94,-10.4 l 28.81,-2.28 31.23,-1.22 h 25.25 l 21.29,8.88 5.2,19.42 -2.71,7.48 v 14.2 l 11.7,8.35 13.63,5.06 1.33,15.97 -19.96,13.31 -3.99,-14.54 -6.65,-12.08 -5.32,-13.31 -3.99,-7.99 -6.65,-9.32 -2.66,-5.32 -7.01,-5.62 -19.59,-1.58 -26.63,-3.45 -23.96,-2.66 -21.32,2.96 -3.94,-5.87 z"
         id="path3" />
      <path
         class="cls-3"
         d="m 450.86,913.59 c 0,0 14.63,33.27 -34.61,31.94 l 21.29,1.33 29.28,-1.33 9.32,-2.66 -8.77,-9.61 -9.87,-10.35 -6.65,-9.32 z"
         id="path4" />
      <path
         class="cls-3"
         d="m 639.84,832.41 c 0,0 -15.97,91.82 -43.92,46.57 l 9.02,51.24 25.73,-23.29 13.16,-38.6 v -25.77 l -3.99,-10.16 z"
         id="path5" />
      <polygon
         class="cls-3"
         points="465.56,705.99 465.24,703.31 476.14,695.63 508.92,691.49 528.04,720.5 507.34,720.5 473.43,712.01 "
         id="polygon5" />
      <path
         class="cls-3"
         d="m 281.81,821.61 c 0,0 -14.52,-62.4 21.36,-65.06 l -45.3,-10.65 v 31.94 l 10.65,49.24 z"
         id="path6" />
      <path
         class="cls-3"
         d="m 532.13,798.83 c 0,0 -20.06,-18.32 -10.74,-47.6 9.32,-29.28 -17.3,-26.62 -17.3,-26.62 l 41.11,7.97 -5.18,11.25 -6.77,12.72 -2.63,15.35 2.63,14.6 -1.11,12.33 z"
         id="path7" />
      <polygon
         class="cls-3"
         points="253.89,439.8 251.23,430.48 278.24,423.76 319.1,419.84 356.71,425.16 394.96,441.13 429.56,467.75 458.84,501.02 470.82,535.33 479.74,572.89 457.51,583.53 444.2,536.95 376.33,463.76 285.83,439.8 "
         id="polygon7" />
      <polygon
         class="cls-3"
         points="458.84,709.97 424.55,732.58 396.54,735.26 420.96,715.34 442.28,695.63 443.46,686 439.72,679.06 435.03,669.99 447.4,686 467.37,695.63 "
         id="polygon8" />
      <polygon
         class="cls-3"
         points="486.94,694.27 514.74,678.03 523.36,651.66 528.04,626.81 520.05,599.6 504.09,588.52 479.74,599.6 465.24,619.71 460.17,656.73 465.56,683.6 "
         id="polygon9" />
      <polygon
         class="cls-3"
         points="534.7,976.14 509.41,981.46 474.81,980.13 440.21,970.82 412.26,960.17 410.31,952.55 445.53,950.85 480.11,944.15 509.41,956.18 556.22,956.18 576.52,950.16 601.24,937.55 608.13,961.8 613.22,985.46 606.57,1001.43 590.6,1009.41 567.96,1004.38 550.67,990.78 "
         id="polygon10" />
    </g>
    <g
       id="Ebene_2"
       data-name="Ebene 2">
      <path
         d="m 511.01,579.28 c 37.53,23.16 25.73,81.92 -0.18,109.88 9.08,10.08 19.84,20.06 25.54,32.44 1.52,1.26 16.74,2.67 20.3,2.99 11.56,1.04 31.36,2.52 42.43,1.2 12.53,-1.5 28.74,-13.97 41.38,-18.51 28.78,-10.35 46.7,-1.11 33.97,30.63 15.67,-2.24 23.84,12.62 15.74,25.74 -2.88,4.66 -8.95,7.4 -11,10.29 -3.64,5.12 -4.66,16.74 -14.05,18.57 v 1.94 c 17.51,18.1 43.55,62.05 35.28,87.23 -6.08,18.52 -26.72,19.49 -42.31,12.98 -5.66,-2.36 -9.78,-7.3 -15.59,-9.02 -5.33,20.14 -20.13,35.74 -34.46,50.09 8.66,19.34 18.16,60.37 -4.53,72.62 -26.01,14.03 -54.22,-11.74 -71,-29.34 -35.63,13.69 -74.84,7.06 -108.75,-8.39 -11.95,-5.44 -23.55,-14.1 -34.96,-19.61 -15.44,-7.44 -29.6,-10.53 -45.31,-19.9 -29.85,-17.8 -50.35,-37.51 -68.05,-67.7 -8.73,-14.89 -8.35,-16.38 -11.22,-32.7 -0.86,-4.87 -4.05,-10.45 -5.19,-15.44 -45.87,-2.82 -90.11,-23.57 -124.94,-52.73 -13.86,-11.6 -33.12,-35.93 -46.62,-43.87 -11.45,-6.74 -38.98,-10.1 -42.21,-25.65 -2.02,-9.73 0.94,-14.8 9.01,-19.7 -16.7,-19.94 4.68,-36.57 25.28,-31.24 -0.93,-4.42 -4.6,-7.26 -6.37,-11.59 -3.27,-8.03 -5.07,-19.58 3.81,-24.91 15.67,-9.39 51.87,13.47 65.1,23.19 -12.44,-54.99 3.97,-100.51 36.19,-144.16 45.1,-61.09 93.6,-88.67 172.09,-80.75 87.49,8.83 166.52,83.93 160.66,175.39 z m -12.26,-6.39 C 499.39,484.28 418.02,414.81 332.4,413.2 l 34.31,8.92 c 65.09,20.15 111.46,80.5 117.57,147.94 z m -26.76,-1.49 c -3.14,-46.15 -31.57,-95.28 -70.5,-120.17 -41.72,-26.68 -98.09,-36.36 -144.94,-18.06 -0.31,2.48 2.67,0.98 4.05,0.73 11.63,-2.15 23.24,-5.45 35.14,-6.12 86.11,-4.88 161.72,61.19 164.42,147.78 l 11.82,-4.15 z M 490,587.55 c 2.35,-1.03 2.19,-4.47 -0.27,-5.2 -23.21,-6.82 -41.34,14.44 -49.55,35.09 -9.81,24.66 -5.78,47.86 13.78,63.7 2.28,1.85 5.62,-0.27 4.92,-3.12 l -1.98,-8.05 c -2.61,-10.64 -2.92,-21.75 -0.52,-32.44 3.72,-16.61 10.74,-32.89 23.3,-43.83 2.65,-2.31 5.7,-4.13 8.92,-5.54 l 1.41,-0.62 z m 3.08,9.61 c -12.37,2.3 -22.94,24.02 -26.18,35.04 -5.58,19.01 -7.78,53.69 19.4,55.07 39.4,2 55.7,-99.22 6.78,-90.11 z m -386.94,22.32 c -8.06,-1.17 -17.23,-9.14 -24.62,-2.7 -8.06,13.52 36.94,45.14 32.61,49.25 -9.92,1.01 -18.36,-13.34 -26.02,-14.56 -8.39,-1.33 -36.67,0.29 -27.22,13.91 6.68,9.63 28.19,12.42 38.24,20.32 1.6,1.26 3.62,1.53 3.02,4.28 -10.64,0.96 -41.17,-17.28 -47.23,-3.96 -6.06,13.32 22.81,19.16 31.18,24.68 22.7,14.97 43.32,39.95 67.54,56.23 4.85,3.26 25.48,16.85 29.73,15.68 13.66,-3.78 35.11,-37.84 31.26,-52.67 -21.15,-18.51 -41.13,-35.74 -55.47,-60.35 -3.39,-5.82 -7.88,-18.79 -11.71,-22.89 -3.83,-4.1 -28.79,-16.11 -34.13,-16.55 -17.03,-1.39 9.32,16.75 11.48,19.23 7.46,8.54 2.05,32.32 7.99,43.92 -6.28,2.81 -10.64,-10.72 -11.4,-15.22 -1.09,-6.38 0.6,-14.27 -1.6,-19.69 -3.62,-8.92 -32.34,-16.8 -20.13,-34.12 2.2,-3.11 5.44,-2.13 6.49,-4.8 z m 175.69,129.07 c 28.49,2.94 58.23,1.96 85.15,-8.65 21.69,-8.55 58.33,-33.12 71.14,-52.62 3.93,-5.98 0.01,-9.66 -5.22,-13.23 -28.47,42.18 -75.61,69.13 -126.47,73.17 -6.46,0.51 -13.4,-0.26 -19.96,0.01 -1.62,0.07 -4.95,-1.01 -4.64,1.32 z m 176.71,-46.82 c 1.9,-1.76 1.54,-4.89 -0.73,-6.13 -3.45,-1.87 -7.03,-5.35 -9.64,-3.67 -2.27,1.47 -9.22,12.88 -12.01,15.99 -1.19,1.33 -2.45,2.58 -3.72,3.82 -2.64,2.59 -5.46,5 -8.43,7.21 l -18.41,13.62 c 18.26,-4.9 38.03,-17.01 51.91,-29.91 0.23,-0.21 0.6,-0.54 1.03,-0.93 z m 61.51,17.54 -19.28,-23.64 c -8.29,4.44 -18.42,8.1 -27.79,4.91 l -2.17,3.44 c 15.82,6.5 32.22,12.59 49.23,15.28 z m 19.96,14.67 c -26.71,-3.43 -53.07,-10.2 -77.65,-21.03 -8.94,6.06 -16.92,13.4 -26.26,18.91 -18.1,10.67 -40.52,17.01 -61.06,21.45 -37.53,8.12 -74.21,12.6 -111.84,1.94 -0.75,21.71 2.37,43.44 8.61,64.2 0.34,1.13 1.7,1.59 2.65,0.91 6.87,-4.92 14.15,-8.14 22.83,-9.04 22.8,-2.37 61.3,-4.39 83.54,-1.35 18.33,2.5 20.75,12.38 29.63,26.26 20.66,-0.2 39.67,-3.36 58.58,-11.53 4.21,-1.82 24.99,-12.24 25.71,-15.56 0.82,-3.75 -21.65,-10.84 -21.28,-17.94 21.83,6.09 42.3,17.74 65.21,19.94 -16,-24.25 -15.93,-53.57 1.33,-77.16 z m 89.64,28.4 c -2.87,2.66 -7.11,8.85 -11.09,12.2 -2.02,1.7 -3.87,2.23 -5.34,0.64 -2.66,-3.99 11.98,-21.29 21.29,-25.29 7.74,-3.32 30.61,-7.99 27.95,-18.63 -3.18,-12.72 -36.36,-2.64 -51.04,0.23 -3.68,0.72 -7.41,1.15 -11.15,1.29 l -50.92,3.17 c -12.53,10.36 -17.01,26.72 -15.97,42.55 0.46,7.07 5.08,26.47 9.44,31.81 4.88,5.98 37.33,5.48 45.74,4.79 29,-2.38 54.36,-19.27 76.54,-36.59 0.55,-3.01 -1.31,-1.84 -3.3,-1.98 -3.99,-0.29 -9.43,4.16 -13.42,4.05 -1.38,-0.04 -2.13,-1.62 -1.29,-2.71 l 0.02,-0.03 c 4.07,-5.24 38.88,-11.7 35.09,-26.99 -1.98,-7.98 -16.99,2.26 -22.4,3.75 -12.4,3.41 -20.26,-1.43 -30.17,7.76 z M 253.7,751.41 220.62,735.26 c -1.7,21.17 -16.66,38.55 -33.28,50.55 22.17,8.71 45.2,15.82 69.2,17.31 -3.87,-17.02 -2.26,-34.39 -2.84,-51.71 z m 386.14,81 c 2.64,-3.03 6.07,8.98 6.33,10.29 1.65,8.2 0.14,24.46 2.65,30.62 4.68,11.51 28.64,19.12 37.63,9.03 13.54,-15.17 -11.51,-55.62 -21.58,-69 -2.84,-3.77 -7.72,-12.92 -12.65,-10.58 -24.98,17.5 -53.63,25.92 -84.26,24.33 23.8,24.29 35.44,59.75 38.61,93.15 26.54,-21.84 34.19,-54.49 33.27,-87.83 z m -111.8,-11.97 -23.16,-7.89 c -4.53,6.98 -11.43,10.76 -18.54,14.77 -16.19,9.13 -36.02,16.25 -54.74,17.13 -14.14,0.67 -28.5,-7.56 -24.08,13.33 4.37,20.63 42.6,14.97 57.64,10.92 23.74,-6.41 52.76,-25.35 62.87,-48.25 z m -117.11,81.18 c 10.44,-0.78 15.27,-10.78 13.13,-20.47 -3.95,-3.38 -9.81,-3.15 -14.91,-6.37 -10.5,-6.62 -12.45,-15.22 -11.46,-26.99 0.23,-2.69 2.55,-4.03 2.07,-7.43 -1.89,-13.26 -12.92,-20.33 -25.38,-21.31 -17.1,-1.34 -34.33,-0.9 -51.28,0.05 -12.69,0.71 -27.57,-0.42 -37.97,8.17 -0.68,0.56 -0.21,1.67 0.67,1.6 13.68,-1.07 26.79,-1.71 40.61,-0.45 10.28,0.94 47.64,5.51 54.25,10.6 2.04,1.57 6.31,8.5 7.86,11.12 6.69,11.25 18.83,33.73 22.08,45.82 0.49,1.83 0.31,3.79 0.33,5.65 z m 39.93,11.97 c 11.15,11.05 19.16,21.19 34.11,27.76 29.65,13.03 79.77,18.33 105.63,-4.45 7.73,-6.81 8.79,-9.44 8.79,-20.2 0,-21.71 -11.58,-54.87 -23.42,-73.01 -2.11,-3.24 -10.59,-14.5 -13.41,-15.86 -1.44,-0.69 -21.71,-4.71 -23.35,-4.67 -3.47,0.09 -3.8,5.9 -5.61,8.84 -20.3,32.98 -62.3,49.75 -100.07,49.65 2.86,12.31 -6.35,28.28 -19.63,28.96 -3.01,0.16 -7.81,0.12 -10.97,0.32 -24.49,1.54 -47.5,5.49 -71.86,1.33 0,1.33 0.93,2.29 2.62,3.3 42.5,25.47 86.65,32.97 135.78,24.63 -6.25,-8.6 -15.88,-15.87 -18.62,-26.6 z M 289.49,838.07 c -3.49,0.47 -9.39,1.9 -11.58,4.48 -0.92,3.02 15.97,31.97 19.05,36.61 7.25,10.92 14.07,22.33 28.14,23.77 17.07,1.75 33.66,0.98 50.57,0.03 8.83,-0.5 19.68,2.06 27.21,-3.48 0.64,-2.05 -15.8,-34.34 -18.35,-38.69 -6.33,-10.78 -8.16,-14.79 -21.2,-17.4 -20.24,-4.04 -53.77,-8.04 -73.84,-5.32 z M 601.22,944.2 c -1.01,-0.77 -10.19,6.93 -12.4,8.21 -31.48,18.22 -66.77,12.35 -99.36,0.42 -2.57,-0.94 -6.11,-4.04 -7.54,-4.28 -2.42,-0.41 -20.06,4.38 -25.1,4.95 -11.61,1.31 -24.25,0.91 -35.93,1.35 -1.61,0.06 -4.95,-1 -4.63,1.31 21.89,9.65 44.27,18.6 68.54,19.97 14.8,0.83 28.53,-3.45 43.25,-2.64 l 0.65,-6.65 c 16.13,12.58 51.2,47.21 73.05,31.78 12.4,-8.76 3.64,-42.07 -0.53,-54.41 z"
         id="path10" />
      <ellipse
         class="cls-1"
         cx="398.95001"
         cy="590.19"
         rx="15.97"
         ry="24.43"
         id="ellipse10" />
    </g>
    <g
       id="highlights">
      <path
         class="cls-1"
         d="m 357.69,457.1 c 41.49,13.62 74.36,52.16 78.69,95.95 1.55,14.47 0.54,29.09 -2.83,43.01 1.9,-28.27 -1.56,-56.79 -15.55,-81.64 -13.62,-24.64 -35.55,-44.18 -60.31,-57.31 v 0 z"
         id="path11" />
    </g>
    <g
       id="g13">
      <path
         d="m 346.08,857.57 c -1.47,-7.16 -7.42,-12.21 -13.83,-11.45 -6.43,0.75 -11.06,7.07 -10.81,14.41 -1.31,0.85 -2.1,2.45 -1.9,4.17 l 2.62,22.33 c 0.28,2.38 2.34,4.09 4.61,3.83 l 21.26,-2.49 c 2.27,-0.27 3.88,-2.41 3.6,-4.79 l -2.62,-22.33 c -0.21,-1.77 -1.41,-3.18 -2.94,-3.67 z m -13.41,-7.84 c 4.42,-0.52 8.56,2.92 9.86,7.9 l -17.63,2.06 c 0.12,-5.14 3.34,-9.44 7.77,-9.96 z"
         id="path12" />
      <path
         class="cls-1"
         d="m 341.59,872.11 c -0.42,-3.63 -3.57,-6.24 -7.02,-5.83 -3.45,0.41 -5.91,3.67 -5.48,7.3 0.32,2.76 2.22,4.93 4.63,5.63 l 0.63,5.38 4.46,-0.52 -0.62,-5.3 c 2.3,-1.19 3.74,-3.82 3.41,-6.66 z"
         id="path13" />
    </g>
  </g>
</svg>
