<?xml version="1.0" encoding="UTF-8" standalone="no"?>
<svg
   width="560"
   height="396"
   viewBox="0 0 560 396"
   fill="none"
   version="1.1"
   id="svg20"
   sodipodi:docname="highlight-04-mobile.svg"
   inkscape:version="1.4 (e7c3feb100, 2024-10-09)"
   xmlns:inkscape="http://www.inkscape.org/namespaces/inkscape"
   xmlns:sodipodi="http://sodipodi.sourceforge.net/DTD/sodipodi-0.dtd"
   xmlns="http://www.w3.org/2000/svg"
   xmlns:svg="http://www.w3.org/2000/svg">
  <sodipodi:namedview
     id="namedview20"
     pagecolor="#505050"
     bordercolor="#ffffff"
     borderopacity="1"
     inkscape:showpageshadow="0"
     inkscape:pageopacity="0"
     inkscape:pagecheckerboard="1"
     inkscape:deskcolor="#505050"
     inkscape:zoom="1.0928014"
     inkscape:cx="125.36587"
     inkscape:cy="45.296429"
     inkscape:window-width="1920"
     inkscape:window-height="1014"
     inkscape:window-x="0"
     inkscape:window-y="0"
     inkscape:window-maximized="1"
     inkscape:current-layer="svg20" />
  <g
     clip-path="url(#clip1_799_1836)"
     id="g5">
    <rect
       x="38"
       y="72"
       width="440"
       height="266"
       rx="16"
       fill="#4074bc"
       fill-opacity="0.03"
       id="rect1" />
    <rect
       x="-2"
       y="247"
       width="423"
       height="183"
       rx="16"
       fill="#ffffff"
       id="rect2" />
    <path
       opacity="0.3"
       d="M 129.111,389.12 125,398 h 296 v -87.876 l -4.111,0.838 c -4.111,0.839 -12.334,2.515 -20.555,10.066 -8.223,7.55 -16.445,20.976 -24.668,26.388 -8.221,5.412 -16.444,2.813 -24.666,-13.521 -8.222,-16.332 -16.445,-46.399 -24.666,-51.175 -8.223,-4.777 -16.445,15.736 -24.668,17.185 -8.221,1.448 -16.444,-16.17 -24.666,-10.813 -8.222,5.356 -16.445,33.686 -24.666,41.585 -8.223,7.898 -16.445,-4.634 -24.668,-0.327 -8.221,4.304 -16.444,25.448 -24.666,34.771 -8.222,9.325 -16.445,6.828 -24.666,1.457 -8.223,-5.369 -16.445,-13.613 -24.668,-8.855 -8.221,4.759 -16.444,22.518 -20.555,31.397 z"
       fill="#e2e8f0"
       id="path2" />
    <path
       d="m 125,398 4.111,-8.88 c 4.111,-8.879 12.334,-26.638 20.555,-31.397 8.223,-4.758 16.445,3.486 24.668,8.855 8.221,5.371 16.444,7.868 24.666,-1.457 8.222,-9.323 16.445,-30.467 24.666,-34.771 8.223,-4.307 16.445,8.225 24.668,0.327 8.221,-7.899 16.444,-36.229 24.666,-41.585 8.222,-5.357 16.445,12.261 24.666,10.813 8.223,-1.449 16.445,-21.962 24.668,-17.185 8.221,4.776 16.444,34.843 24.666,51.175 8.222,16.334 16.445,18.933 24.666,13.521 8.223,-5.412 16.445,-18.838 24.668,-26.388 8.221,-7.551 16.444,-9.227 20.555,-10.066 L 421,310.124"
       stroke="#e2e8f0"
       stroke-width="2"
       stroke-linecap="round"
       id="path3" />
    <path
       d="M 81,279 H 37 c -3.866,0 -7,3.134 -7,7 0,3.866 3.134,7 7,7 h 44 c 3.866,0 7,-3.134 7,-7 0,-3.866 -3.134,-7 -7,-7 z"
       fill="#cbd5e1"
       id="path4" />
    <path
       d="m 117,279 h -14 c -3.866,0 -7,3.134 -7,7 0,3.866 3.134,7 7,7 h 14 c 3.866,0 7,-3.134 7,-7 0,-3.866 -3.134,-7 -7,-7 z"
       fill="#cbd5e1"
       id="path5" />
  </g>
  <rect
     x="38.5"
     y="72.5"
     width="439"
     height="265"
     rx="15.5"
     stroke="#94a3b8"
     stroke-opacity="0.1"
     id="rect5" />
  <g
     filter="url(#filter0_d_799_1836)"
     id="g6"
     clip-path="url(#clipPath20)">
    <rect
       x="89"
       y="18"
       width="423"
       height="183"
       rx="16"
       fill="#ffffff"
       id="rect6" />
  </g>
  <path
     d="m 155,50 h -27 c -3.866,0 -7,3.134 -7,7 0,3.866 3.134,7 7,7 h 27 c 3.866,0 7,-3.134 7,-7 0,-3.866 -3.134,-7 -7,-7 z"
     fill="#eceff1"
     id="path6" />
  <path
     d="m 225,50 h -48 c -3.866,0 -7,3.134 -7,7 0,3.866 3.134,7 7,7 h 48 c 3.866,0 7,-3.134 7,-7 0,-3.866 -3.134,-7 -7,-7 z"
     fill="#eceff1"
     id="path7" />
  <path
     d="m 167.706,102.699 c 4.955,1.697 9.408,4.602 12.957,8.453 3.549,3.851 6.082,8.526 7.37,13.602 1.288,5.076 1.289,10.393 0.005,15.47 -1.284,5.077 -3.813,9.754 -7.36,13.607 -3.546,3.853 -7.997,6.762 -12.95,8.462 -4.953,1.701 -10.252,2.139 -15.417,1.277 -5.166,-0.863 -10.034,-3 -14.166,-6.218 -4.132,-3.217 -7.396,-7.415 -9.497,-12.211"
     stroke="#ec4899"
     stroke-width="10"
     stroke-linecap="round"
     id="path8"
     style="stroke:#8d5fd3;stroke-opacity:1" />
  <path
     d="m 126.379,127.623 c 0.926,-5.914 3.519,-11.441 7.474,-15.935 3.954,-4.494 9.108,-7.767 14.856,-9.438"
     stroke="#e2e8f0"
     stroke-width="10"
     stroke-linecap="round"
     id="path9" />
  <path
     d="m 246,115 c 0,-3.314 -2.686,-6 -6,-6 -3.314,0 -6,2.686 -6,6 0,3.314 2.686,6 6,6 3.314,0 6,-2.686 6,-6 z"
     fill="#ec4899"
     id="path10"
     style="fill:#8d5fd3;fill-opacity:1" />
  <path
     d="m 278,111 h -16 c -2.209,0 -4,1.791 -4,4 0,2.209 1.791,4 4,4 h 16 c 2.209,0 4,-1.791 4,-4 0,-2.209 -1.791,-4 -4,-4 z"
     fill="#eceff1"
     id="path11" />
  <path
     d="m 380,111 h -88 c -2.209,0 -4,1.791 -4,4 0,2.209 1.791,4 4,4 h 88 c 2.209,0 4,-1.791 4,-4 0,-2.209 -1.791,-4 -4,-4 z"
     fill="#eceff1"
     id="path12" />
  <path
     d="m 495,111 h -88 c -2.209,0 -4,1.791 -4,4 0,2.209 1.791,4 4,4 h 88 c 2.209,0 4,-1.791 4,-4 0,-2.209 -1.791,-4 -4,-4 z"
     fill="#eceff1"
     id="path13" />
  <path
     d="m 246,150 c 0,-3.314 -2.686,-6 -6,-6 -3.314,0 -6,2.686 -6,6 0,3.314 2.686,6 6,6 3.314,0 6,-2.686 6,-6 z"
     fill="#f0f3f7"
     id="path14" />
  <path
     d="m 267,146 h -5 c -2.209,0 -4,1.791 -4,4 0,2.209 1.791,4 4,4 h 5 c 2.209,0 4,-1.791 4,-4 0,-2.209 -1.791,-4 -4,-4 z"
     fill="#eceff1"
     id="path15" />
  <path
     d="M 384,146 H 281 c -2.209,0 -4,1.791 -4,4 0,2.209 1.791,4 4,4 h 103 c 2.209,0 4,-1.791 4,-4 0,-2.209 -1.791,-4 -4,-4 z"
     fill="#eceff1"
     id="path16" />
  <path
     d="m 444,146 h -33 c -2.209,0 -4,1.791 -4,4 0,2.209 1.791,4 4,4 h 33 c 2.209,0 4,-1.791 4,-4 0,-2.209 -1.791,-4 -4,-4 z"
     fill="#eceff1"
     id="path17" />
  <defs
     id="defs20">
    <filter
       id="filter0_d_799_1836"
       x="51"
       y="-10"
       width="499"
       height="259"
       filterUnits="userSpaceOnUse"
       color-interpolation-filters="sRGB">
      <feFlood
         flood-opacity="0"
         result="BackgroundImageFix"
         id="feFlood17" />
      <feColorMatrix
         in="SourceAlpha"
         type="matrix"
         values="0 0 0 0 0 0 0 0 0 0 0 0 0 0 0 0 0 0 127 0"
         result="hardAlpha"
         id="feColorMatrix17" />
      <feOffset
         dy="10"
         id="feOffset17" />
      <feGaussianBlur
         stdDeviation="19"
         id="feGaussianBlur17" />
      <feColorMatrix
         type="matrix"
         values="0 0 0 0 0.0941176 0 0 0 0 0.152941 0 0 0 0 0.294118 0 0 0 0.06 0"
         id="feColorMatrix18" />
      <feBlend
         mode="normal"
         in2="BackgroundImageFix"
         result="effect1_dropShadow_799_1836"
         id="feBlend18" />
      <feBlend
         mode="normal"
         in="SourceGraphic"
         in2="effect1_dropShadow_799_1836"
         result="shape"
         id="feBlend19" />
    </filter>
    <clipPath
       id="clip1_799_1836">
      <rect
         x="38"
         y="72"
         width="440"
         height="266"
         rx="16"
         fill="white"
         id="rect20" />
    </clipPath>
    <clipPath
       clipPathUnits="userSpaceOnUse"
       id="clipPath20">
      <rect
         width="560"
         height="396"
         fill="#ffffff"
         id="rect21"
         x="0"
         y="0" />
    </clipPath>
  </defs>
</svg>
